<svg width="1920" height="1080" viewBox="0 0 1920 1080" fill="none" xmlns="http://www.w3.org/2000/svg">
<g clip-path="url(#clip0_338_90910)">
<path d="M202.101 0H101.051V98.18H202.101V0Z" fill="#7F789C"/>
<path d="M101.05 0H0V98.18H101.05V0Z" fill="#8C789C"/>
<path d="M404.21 0H303.16V98.18H404.21V0Z" fill="#7F789C"/>
<path d="M303.159 0H202.109V98.18H303.159V0Z" fill="#8C789C"/>
<path d="M606.31 0H505.26V98.18H606.31V0Z" fill="#7F789C"/>
<path d="M505.261 0H404.211V98.18H505.261V0Z" fill="#8C789C"/>
<path d="M808.419 0H707.369V98.18H808.419V0Z" fill="#7F789C"/>
<path d="M707.37 0H606.32V98.18H707.37V0Z" fill="#8C789C"/>
<path d="M1010.52 0H909.471V98.18H1010.52V0Z" fill="#7F789C"/>
<path d="M909.47 0H808.42V98.18H909.47V0Z" fill="#8C789C"/>
<path d="M1212.63 0H1111.58V98.18H1212.63V0Z" fill="#7F789C"/>
<path d="M1111.58 0H1010.53V98.18H1111.58V0Z" fill="#8C789C"/>
<path d="M1414.73 0H1313.68V98.18H1414.73V0Z" fill="#7F789C"/>
<path d="M1313.68 0H1212.63V98.18H1313.68V0Z" fill="#8C789C"/>
<path d="M1616.84 0H1515.79V98.18H1616.84V0Z" fill="#7F789C"/>
<path d="M1515.79 0H1414.74V98.18H1515.79V0Z" fill="#8C789C"/>
<path d="M1818.94 0H1717.89V98.18H1818.94V0Z" fill="#7F789C"/>
<path d="M1717.89 0H1616.84V98.18H1717.89V0Z" fill="#8C789C"/>
<path d="M1920 0H1818.95V98.18H1920V0Z" fill="#8C789C"/>
<path d="M101.05 98.1797H0V196.36H101.05V98.1797Z" fill="#7F789C"/>
<path d="M1920 98.1797H1818.95V196.36H1920V98.1797Z" fill="#7F789C"/>
<path d="M303.159 98.1797H202.109V196.36H303.159V98.1797Z" fill="#7F789C"/>
<path d="M202.101 98.1797H101.051V196.36H202.101V98.1797Z" fill="#8C789C"/>
<path d="M505.261 98.1797H404.211V196.36H505.261V98.1797Z" fill="#7F789C"/>
<path d="M404.21 98.1797H303.16V196.36H404.21V98.1797Z" fill="#8C789C"/>
<path d="M707.37 98.1797H606.32V196.36H707.37V98.1797Z" fill="#7F789C"/>
<path d="M606.31 98.1797H505.26V196.36H606.31V98.1797Z" fill="#8C789C"/>
<path d="M909.47 98.1797H808.42V196.36H909.47V98.1797Z" fill="#7F789C"/>
<path d="M808.419 98.1797H707.369V196.36H808.419V98.1797Z" fill="#8C789C"/>
<path d="M1111.58 98.1797H1010.53V196.36H1111.58V98.1797Z" fill="#7F789C"/>
<path d="M1010.52 98.1797H909.471V196.36H1010.52V98.1797Z" fill="#8C789C"/>
<path d="M1313.68 98.1797H1212.63V196.36H1313.68V98.1797Z" fill="#7F789C"/>
<path d="M1212.63 98.1797H1111.58V196.36H1212.63V98.1797Z" fill="#8C789C"/>
<path d="M1515.79 98.1797H1414.74V196.36H1515.79V98.1797Z" fill="#7F789C"/>
<path d="M1414.73 98.1797H1313.68V196.36H1414.73V98.1797Z" fill="#8C789C"/>
<path d="M1717.89 98.1797H1616.84V196.36H1717.89V98.1797Z" fill="#7F789C"/>
<path d="M1616.84 98.1797H1515.79V196.36H1616.84V98.1797Z" fill="#8C789C"/>
<path d="M1818.94 98.1797H1717.89V196.36H1818.94V98.1797Z" fill="#8C789C"/>
<path d="M202.101 196.36H101.051V294.54H202.101V196.36Z" fill="#7F789C"/>
<path d="M101.05 196.36H0V294.54H101.05V196.36Z" fill="#8C789C"/>
<path d="M404.21 196.36H303.16V294.54H404.21V196.36Z" fill="#7F789C"/>
<path d="M303.159 196.36H202.109V294.54H303.159V196.36Z" fill="#8C789C"/>
<path d="M606.31 196.36H505.26V294.54H606.31V196.36Z" fill="#7F789C"/>
<path d="M505.261 196.36H404.211V294.54H505.261V196.36Z" fill="#8C789C"/>
<path d="M808.419 196.36H707.369V294.54H808.419V196.36Z" fill="#7F789C"/>
<path d="M707.37 196.36H606.32V294.54H707.37V196.36Z" fill="#8C789C"/>
<path d="M1010.52 196.36H909.471V294.54H1010.52V196.36Z" fill="#7F789C"/>
<path d="M909.47 196.36H808.42V294.54H909.47V196.36Z" fill="#8C789C"/>
<path d="M1212.63 196.36H1111.58V294.54H1212.63V196.36Z" fill="#7F789C"/>
<path d="M1111.58 196.36H1010.53V294.54H1111.58V196.36Z" fill="#8C789C"/>
<path d="M1414.73 196.36H1313.68V294.54H1414.73V196.36Z" fill="#7F789C"/>
<path d="M1313.68 196.36H1212.63V294.54H1313.68V196.36Z" fill="#8C789C"/>
<path d="M1616.84 196.36H1515.79V294.54H1616.84V196.36Z" fill="#7F789C"/>
<path d="M1515.79 196.36H1414.74V294.54H1515.79V196.36Z" fill="#8C789C"/>
<path d="M1818.94 196.36H1717.89V294.54H1818.94V196.36Z" fill="#7F789C"/>
<path d="M1717.89 196.36H1616.84V294.54H1717.89V196.36Z" fill="#8C789C"/>
<path d="M1920 196.36H1818.95V294.54H1920V196.36Z" fill="#8C789C"/>
<path d="M101.05 294.55H0V392.73H101.05V294.55Z" fill="#7F789C"/>
<path d="M1920 294.55H1818.95V392.73H1920V294.55Z" fill="#7F789C"/>
<path d="M303.159 294.55H202.109V392.73H303.159V294.55Z" fill="#7F789C"/>
<path d="M202.101 294.55H101.051V392.73H202.101V294.55Z" fill="#8C789C"/>
<path d="M505.261 294.55H404.211V392.73H505.261V294.55Z" fill="#7F789C"/>
<path d="M404.21 294.55H303.16V392.73H404.21V294.55Z" fill="#8C789C"/>
<path d="M707.37 294.55H606.32V392.73H707.37V294.55Z" fill="#7F789C"/>
<path d="M606.31 294.55H505.26V392.73H606.31V294.55Z" fill="#8C789C"/>
<path d="M909.47 294.55H808.42V392.73H909.47V294.55Z" fill="#7F789C"/>
<path d="M808.419 294.55H707.369V392.73H808.419V294.55Z" fill="#8C789C"/>
<path d="M1111.58 294.55H1010.53V392.73H1111.58V294.55Z" fill="#7F789C"/>
<path d="M1010.52 294.55H909.471V392.73H1010.52V294.55Z" fill="#8C789C"/>
<path d="M1313.68 294.55H1212.63V392.73H1313.68V294.55Z" fill="#7F789C"/>
<path d="M1212.63 294.55H1111.58V392.73H1212.63V294.55Z" fill="#8C789C"/>
<path d="M1515.79 294.55H1414.74V392.73H1515.79V294.55Z" fill="#7F789C"/>
<path d="M1414.73 294.55H1313.68V392.73H1414.73V294.55Z" fill="#8C789C"/>
<path d="M1717.89 294.55H1616.84V392.73H1717.89V294.55Z" fill="#7F789C"/>
<path d="M1616.84 294.55H1515.79V392.73H1616.84V294.55Z" fill="#8C789C"/>
<path d="M1818.94 294.55H1717.89V392.73H1818.94V294.55Z" fill="#8C789C"/>
<path d="M202.101 392.73H101.051V490.91H202.101V392.73Z" fill="#7F789C"/>
<path d="M101.05 392.73H0V490.91H101.05V392.73Z" fill="#8C789C"/>
<path d="M404.21 392.73H303.16V490.91H404.21V392.73Z" fill="#7F789C"/>
<path d="M303.159 392.73H202.109V490.91H303.159V392.73Z" fill="#8C789C"/>
<path d="M606.31 392.73H505.26V490.91H606.31V392.73Z" fill="#7F789C"/>
<path d="M505.261 392.73H404.211V490.91H505.261V392.73Z" fill="#8C789C"/>
<path d="M808.419 392.73H707.369V490.91H808.419V392.73Z" fill="#7F789C"/>
<path d="M707.37 392.73H606.32V490.91H707.37V392.73Z" fill="#8C789C"/>
<path d="M1010.52 392.73H909.471V490.91H1010.52V392.73Z" fill="#7F789C"/>
<path d="M909.47 392.73H808.42V490.91H909.47V392.73Z" fill="#8C789C"/>
<path d="M1212.63 392.73H1111.58V490.91H1212.63V392.73Z" fill="#7F789C"/>
<path d="M1111.58 392.73H1010.53V490.91H1111.58V392.73Z" fill="#8C789C"/>
<path d="M1414.73 392.73H1313.68V490.91H1414.73V392.73Z" fill="#7F789C"/>
<path d="M1313.68 392.73H1212.63V490.91H1313.68V392.73Z" fill="#8C789C"/>
<path d="M1616.84 392.73H1515.79V490.91H1616.84V392.73Z" fill="#7F789C"/>
<path d="M1515.79 392.73H1414.74V490.91H1515.79V392.73Z" fill="#8C789C"/>
<path d="M1818.94 392.73H1717.89V490.91H1818.94V392.73Z" fill="#7F789C"/>
<path d="M1717.89 392.73H1616.84V490.91H1717.89V392.73Z" fill="#8C789C"/>
<path d="M1920 392.73H1818.95V490.91H1920V392.73Z" fill="#8C789C"/>
<path d="M101.05 490.91H0V589.09H101.05V490.91Z" fill="#7F789C"/>
<path d="M1920 490.91H1818.95V589.09H1920V490.91Z" fill="#7F789C"/>
<path d="M303.159 490.91H202.109V589.09H303.159V490.91Z" fill="#7F789C"/>
<path d="M202.101 490.91H101.051V589.09H202.101V490.91Z" fill="#8C789C"/>
<path d="M505.261 490.91H404.211V589.09H505.261V490.91Z" fill="#7F789C"/>
<path d="M404.21 490.91H303.16V589.09H404.21V490.91Z" fill="#8C789C"/>
<path d="M707.37 490.91H606.32V589.09H707.37V490.91Z" fill="#7F789C"/>
<path d="M606.31 490.91H505.26V589.09H606.31V490.91Z" fill="#8C789C"/>
<path d="M909.47 490.91H808.42V589.09H909.47V490.91Z" fill="#7F789C"/>
<path d="M808.419 490.91H707.369V589.09H808.419V490.91Z" fill="#8C789C"/>
<path d="M1111.58 490.91H1010.53V589.09H1111.58V490.91Z" fill="#7F789C"/>
<path d="M1010.52 490.91H909.471V589.09H1010.52V490.91Z" fill="#8C789C"/>
<path d="M1313.68 490.91H1212.63V589.09H1313.68V490.91Z" fill="#7F789C"/>
<path d="M1212.63 490.91H1111.58V589.09H1212.63V490.91Z" fill="#8C789C"/>
<path d="M1515.79 490.91H1414.74V589.09H1515.79V490.91Z" fill="#7F789C"/>
<path d="M1414.73 490.91H1313.68V589.09H1414.73V490.91Z" fill="#8C789C"/>
<path d="M1717.89 490.91H1616.84V589.09H1717.89V490.91Z" fill="#7F789C"/>
<path d="M1616.84 490.91H1515.79V589.09H1616.84V490.91Z" fill="#8C789C"/>
<path d="M1818.94 490.91H1717.89V589.09H1818.94V490.91Z" fill="#8C789C"/>
<path d="M202.101 589.09H101.051V687.27H202.101V589.09Z" fill="#7F789C"/>
<path d="M101.05 589.09H0V687.27H101.05V589.09Z" fill="#8C789C"/>
<path d="M404.21 589.09H303.16V687.27H404.21V589.09Z" fill="#7F789C"/>
<path d="M303.159 589.09H202.109V687.27H303.159V589.09Z" fill="#8C789C"/>
<path d="M606.31 589.09H505.26V687.27H606.31V589.09Z" fill="#7F789C"/>
<path d="M505.261 589.09H404.211V687.27H505.261V589.09Z" fill="#8C789C"/>
<path d="M808.419 589.09H707.369V687.27H808.419V589.09Z" fill="#7F789C"/>
<path d="M707.37 589.09H606.32V687.27H707.37V589.09Z" fill="#8C789C"/>
<path d="M1010.52 589.09H909.471V687.27H1010.52V589.09Z" fill="#7F789C"/>
<path d="M909.47 589.09H808.42V687.27H909.47V589.09Z" fill="#8C789C"/>
<path d="M1212.63 589.09H1111.58V687.27H1212.63V589.09Z" fill="#7F789C"/>
<path d="M1111.58 589.09H1010.53V687.27H1111.58V589.09Z" fill="#8C789C"/>
<path d="M1414.73 589.09H1313.68V687.27H1414.73V589.09Z" fill="#7F789C"/>
<path d="M1313.68 589.09H1212.63V687.27H1313.68V589.09Z" fill="#8C789C"/>
<path d="M1616.84 589.09H1515.79V687.27H1616.84V589.09Z" fill="#7F789C"/>
<path d="M1515.79 589.09H1414.74V687.27H1515.79V589.09Z" fill="#8C789C"/>
<path d="M1818.94 589.09H1717.89V687.27H1818.94V589.09Z" fill="#7F789C"/>
<path d="M1717.89 589.09H1616.84V687.27H1717.89V589.09Z" fill="#8C789C"/>
<path d="M1920 589.09H1818.95V687.27H1920V589.09Z" fill="#8C789C"/>
<path d="M101.05 687.27H0V785.45H101.05V687.27Z" fill="#7F789C"/>
<path d="M1920 687.27H1818.95V785.45H1920V687.27Z" fill="#7F789C"/>
<path d="M303.159 687.27H202.109V785.45H303.159V687.27Z" fill="#7F789C"/>
<path d="M202.101 687.27H101.051V785.45H202.101V687.27Z" fill="#8C789C"/>
<path d="M505.261 687.27H404.211V785.45H505.261V687.27Z" fill="#7F789C"/>
<path d="M404.21 687.27H303.16V785.45H404.21V687.27Z" fill="#8C789C"/>
<path d="M707.37 687.27H606.32V785.45H707.37V687.27Z" fill="#7F789C"/>
<path d="M606.31 687.27H505.26V785.45H606.31V687.27Z" fill="#8C789C"/>
<path d="M909.47 687.27H808.42V785.45H909.47V687.27Z" fill="#7F789C"/>
<path d="M808.419 687.27H707.369V785.45H808.419V687.27Z" fill="#8C789C"/>
<path d="M1111.58 687.27H1010.53V785.45H1111.58V687.27Z" fill="#7F789C"/>
<path d="M1010.52 687.27H909.471V785.45H1010.52V687.27Z" fill="#8C789C"/>
<path d="M1313.68 687.27H1212.63V785.45H1313.68V687.27Z" fill="#7F789C"/>
<path d="M1212.63 687.27H1111.58V785.45H1212.63V687.27Z" fill="#8C789C"/>
<path d="M1515.79 687.27H1414.74V785.45H1515.79V687.27Z" fill="#7F789C"/>
<path d="M1414.73 687.27H1313.68V785.45H1414.73V687.27Z" fill="#8C789C"/>
<path d="M1717.89 687.27H1616.84V785.45H1717.89V687.27Z" fill="#7F789C"/>
<path d="M1616.84 687.27H1515.79V785.45H1616.84V687.27Z" fill="#8C789C"/>
<path d="M1818.94 687.27H1717.89V785.45H1818.94V687.27Z" fill="#8C789C"/>
<path d="M202.101 785.45H101.051V883.63H202.101V785.45Z" fill="#7F789C"/>
<path d="M101.05 785.45H0V883.63H101.05V785.45Z" fill="#8C789C"/>
<path d="M404.21 785.45H303.16V883.63H404.21V785.45Z" fill="#7F789C"/>
<path d="M303.159 785.45H202.109V883.63H303.159V785.45Z" fill="#8C789C"/>
<path d="M606.31 785.45H505.26V883.63H606.31V785.45Z" fill="#7F789C"/>
<path d="M505.261 785.45H404.211V883.63H505.261V785.45Z" fill="#8C789C"/>
<path d="M808.419 785.45H707.369V883.63H808.419V785.45Z" fill="#7F789C"/>
<path d="M707.37 785.45H606.32V883.63H707.37V785.45Z" fill="#8C789C"/>
<path d="M1010.52 785.45H909.471V883.63H1010.52V785.45Z" fill="#7F789C"/>
<path d="M909.47 785.45H808.42V883.63H909.47V785.45Z" fill="#8C789C"/>
<path d="M1212.63 785.45H1111.58V883.63H1212.63V785.45Z" fill="#7F789C"/>
<path d="M1111.58 785.45H1010.53V883.63H1111.58V785.45Z" fill="#8C789C"/>
<path d="M1414.73 785.45H1313.68V883.63H1414.73V785.45Z" fill="#7F789C"/>
<path d="M1313.68 785.45H1212.63V883.63H1313.68V785.45Z" fill="#8C789C"/>
<path d="M1616.84 785.45H1515.79V883.63H1616.84V785.45Z" fill="#7F789C"/>
<path d="M1515.79 785.45H1414.74V883.63H1515.79V785.45Z" fill="#8C789C"/>
<path d="M1818.94 785.45H1717.89V883.63H1818.94V785.45Z" fill="#7F789C"/>
<path d="M1717.89 785.45H1616.84V883.63H1717.89V785.45Z" fill="#8C789C"/>
<path d="M1920 785.45H1818.95V883.63H1920V785.45Z" fill="#8C789C"/>
<path d="M202.101 981.82H101.051V1080H202.101V981.82Z" fill="#7F789C"/>
<path d="M101.05 981.82H0V1080H101.05V981.82Z" fill="#8C789C"/>
<path d="M404.21 981.82H303.16V1080H404.21V981.82Z" fill="#7F789C"/>
<path d="M303.159 981.82H202.109V1080H303.159V981.82Z" fill="#8C789C"/>
<path d="M606.31 981.82H505.26V1080H606.31V981.82Z" fill="#7F789C"/>
<path d="M505.261 981.82H404.211V1080H505.261V981.82Z" fill="#8C789C"/>
<path d="M808.419 981.82H707.369V1080H808.419V981.82Z" fill="#7F789C"/>
<path d="M707.37 981.82H606.32V1080H707.37V981.82Z" fill="#8C789C"/>
<path d="M1010.52 981.82H909.471V1080H1010.52V981.82Z" fill="#7F789C"/>
<path d="M909.47 981.82H808.42V1080H909.47V981.82Z" fill="#8C789C"/>
<path d="M1212.63 981.82H1111.58V1080H1212.63V981.82Z" fill="#7F789C"/>
<path d="M1111.58 981.82H1010.53V1080H1111.58V981.82Z" fill="#8C789C"/>
<path d="M1414.73 981.82H1313.68V1080H1414.73V981.82Z" fill="#7F789C"/>
<path d="M1313.68 981.82H1212.63V1080H1313.68V981.82Z" fill="#8C789C"/>
<path d="M1616.84 981.82H1515.79V1080H1616.84V981.82Z" fill="#7F789C"/>
<path d="M1515.79 981.82H1414.74V1080H1515.79V981.82Z" fill="#8C789C"/>
<path d="M1818.94 981.82H1717.89V1080H1818.94V981.82Z" fill="#7F789C"/>
<path d="M1717.89 981.82H1616.84V1080H1717.89V981.82Z" fill="#8C789C"/>
<path d="M1920 981.82H1818.95V1080H1920V981.82Z" fill="#8C789C"/>
<path d="M101.05 883.64H0V981.82H101.05V883.64Z" fill="#7F789C"/>
<path d="M1920 883.64H1818.95V981.82H1920V883.64Z" fill="#7F789C"/>
<path d="M303.159 883.64H202.109V981.82H303.159V883.64Z" fill="#7F789C"/>
<path d="M202.101 883.64H101.051V981.82H202.101V883.64Z" fill="#8C789C"/>
<path d="M505.261 883.64H404.211V981.82H505.261V883.64Z" fill="#7F789C"/>
<path d="M404.21 883.64H303.16V981.82H404.21V883.64Z" fill="#8C789C"/>
<path d="M707.37 883.64H606.32V981.82H707.37V883.64Z" fill="#7F789C"/>
<path d="M606.31 883.64H505.26V981.82H606.31V883.64Z" fill="#8C789C"/>
<path d="M909.47 883.64H808.42V981.82H909.47V883.64Z" fill="#7F789C"/>
<path d="M808.419 883.64H707.369V981.82H808.419V883.64Z" fill="#8C789C"/>
<path d="M1111.58 883.64H1010.53V981.82H1111.58V883.64Z" fill="#7F789C"/>
<path d="M1010.52 883.64H909.471V981.82H1010.52V883.64Z" fill="#8C789C"/>
<path d="M1313.68 883.64H1212.63V981.82H1313.68V883.64Z" fill="#7F789C"/>
<path d="M1212.63 883.64H1111.58V981.82H1212.63V883.64Z" fill="#8C789C"/>
<path d="M1515.79 883.64H1414.74V981.82H1515.79V883.64Z" fill="#7F789C"/>
<path d="M1414.73 883.64H1313.68V981.82H1414.73V883.64Z" fill="#8C789C"/>
<path d="M1717.89 883.64H1616.84V981.82H1717.89V883.64Z" fill="#7F789C"/>
<path d="M1616.84 883.64H1515.79V981.82H1616.84V883.64Z" fill="#8C789C"/>
<path d="M1818.94 883.64H1717.89V981.82H1818.94V883.64Z" fill="#8C789C"/>
<g opacity="0.57">
<path d="M1920 0H0V1096.01H1920V0Z" fill="url(#paint0_radial_338_90910)"/>
</g>
<path d="M1920 0H0V1096.01H1920V0Z" fill="url(#paint1_radial_338_90910)"/>
</g>
<defs>
<radialGradient id="paint0_radial_338_90910" cx="0" cy="0" r="1" gradientUnits="userSpaceOnUse" gradientTransform="translate(962.815 509.418) scale(909.424 524.019)">
<stop stop-color="#3B2748" stop-opacity="0"/>
<stop offset="0.3214" stop-color="#2C253A" stop-opacity="0.25"/>
<stop offset="1" stop-color="#2C253A"/>
</radialGradient>
<radialGradient id="paint1_radial_338_90910" cx="0" cy="0" r="1" gradientUnits="userSpaceOnUse" gradientTransform="translate(962.836 -263.103) scale(1509.25 1461.24)">
<stop stop-color="#3B2748" stop-opacity="0"/>
<stop offset="0.3214" stop-color="#0C323A" stop-opacity="0.25"/>
<stop offset="1" stop-color="#2C253A"/>
</radialGradient>
<clipPath id="clip0_338_90910">
<rect width="1920" height="1080" fill="white"/>
</clipPath>
</defs>
</svg>
