<svg width="57" height="43" viewBox="0 0 57 43" fill="none" xmlns="http://www.w3.org/2000/svg">
<g clip-path="url(#clip0_340_119604)">
<path d="M56.1794 3.85938H51.8594V8.17938H56.1794V3.85938Z" fill="#54A88A"/>
<path d="M51.8591 8.16992H47.5391V12.4899H51.8591V8.16992Z" fill="#54A88A"/>
<path d="M51.8591 3.85938H47.5391V8.17938H51.8591V3.85938Z" fill="#54A88A"/>
<path d="M51.8591 -0.450195H47.5391V3.8598H51.8591V-0.450195Z" fill="#54A88A"/>
<path d="M47.5407 12.4902H43.2207V16.8102H47.5407V12.4902Z" fill="#54A88A"/>
<path d="M47.5407 8.16992H43.2207V12.4899H47.5407V8.16992Z" fill="#54A88A"/>
<path d="M47.5407 3.85938H43.2207V8.17938H47.5407V3.85938Z" fill="#54A88A"/>
<path d="M43.2204 16.7998H38.9004V21.1098H43.2204V16.7998Z" fill="#54A88A"/>
<path d="M43.2204 12.4902H38.9004V16.8102H43.2204V12.4902Z" fill="#54A88A"/>
<path d="M43.2204 8.16992H38.9004V12.4899H43.2204V8.16992Z" fill="#54A88A"/>
<path d="M38.9001 21.1094H34.5801V25.4294H38.9001V21.1094Z" fill="#54A88A"/>
<path d="M38.9001 16.7998H34.5801V21.1098H38.9001V16.7998Z" fill="#54A88A"/>
<path d="M38.9001 12.4902H34.5801V16.8102H38.9001V12.4902Z" fill="#54A88A"/>
<path d="M34.57 25.4297H30.25V29.7497H34.57V25.4297Z" fill="#54A88A"/>
<path d="M34.57 21.1094H30.25V25.4294H34.57V21.1094Z" fill="#54A88A"/>
<path d="M34.57 16.7998H30.25V21.1098H34.57V16.7998Z" fill="#54A88A"/>
<path d="M30.2497 29.7402H25.9297V34.0502H30.2497V29.7402Z" fill="#54A88A"/>
<path d="M30.2497 25.4297H25.9297V29.7497H30.2497V25.4297Z" fill="#54A88A"/>
<path d="M30.2497 21.1094H25.9297V25.4294H30.2497V21.1094Z" fill="#54A88A"/>
<path d="M25.9294 38.3594H21.6094V42.6794H25.9294V38.3594Z" fill="#54A88A"/>
<path d="M25.9294 34.0498H21.6094V38.3698H25.9294V34.0498Z" fill="#54A88A"/>
<path d="M25.9294 29.7402H21.6094V34.0502H25.9294V29.7402Z" fill="#54A88A"/>
<path d="M25.9294 25.4297H21.6094V29.7497H25.9294V25.4297Z" fill="#54A88A"/>
<path d="M21.6091 38.3594H17.2891V42.6794H21.6091V38.3594Z" fill="#54A88A"/>
<path d="M21.6091 34.0498H17.2891V38.3698H21.6091V34.0498Z" fill="#54A88A"/>
<path d="M21.6091 29.7402H17.2891V34.0502H21.6091V29.7402Z" fill="#54A88A"/>
<path d="M17.2809 34.0498H12.9609V38.3698H17.2809V34.0498Z" fill="#54A88A"/>
<path d="M17.2809 29.7402H12.9609V34.0502H17.2809V29.7402Z" fill="#54A88A"/>
<path d="M17.2809 25.4297H12.9609V29.7497H17.2809V25.4297Z" fill="#54A88A"/>
<path d="M12.9704 29.7402H8.65039V34.0502H12.9704V29.7402Z" fill="#54A88A"/>
<path d="M12.9704 25.4297H8.65039V29.7497H12.9704V25.4297Z" fill="#54A88A"/>
<path d="M12.9704 21.1094H8.65039V25.4294H12.9704V21.1094Z" fill="#54A88A"/>
<path d="M8.64031 25.4297H4.32031V29.7497H8.64031V25.4297Z" fill="#54A88A"/>
<path d="M8.64031 21.1094H4.32031V25.4294H8.64031V21.1094Z" fill="#54A88A"/>
<path d="M8.64031 16.7998H4.32031V21.1098H8.64031V16.7998Z" fill="#54A88A"/>
<path d="M4.32 21.1094H0V25.4294H4.32V21.1094Z" fill="#54A88A"/>
</g>
<defs>
<clipPath id="clip0_340_119604">
<rect width="56.19" height="42.68" fill="white"/>
</clipPath>
</defs>
</svg>
