<svg width="174" height="161" viewBox="0 0 174 161" fill="none" xmlns="http://www.w3.org/2000/svg">
<path d="M13.547 147.581H0.22168V160.906H13.547V147.581Z" fill="#E24247"/>
<path d="M26.8722 147.581H13.5469V160.906H26.8722V147.581Z" fill="#E24247"/>
<path d="M53.4963 147.581H40.1709V160.906H53.4963V147.581Z" fill="#E24247"/>
<path d="M66.8215 147.581H53.4961V160.906H66.8215V147.581Z" fill="#E24247"/>
<path d="M80.1199 147.581H66.8213V160.906H80.1199V147.581Z" fill="#C73A3E"/>
<path d="M93.4455 147.581H80.1201V160.906H93.4455V147.581Z" fill="#C73A3E"/>
<path d="M106.771 147.581H93.4453V160.906H106.771V147.581Z" fill="#C73A3E"/>
<path d="M120.07 147.581H106.771V160.906H120.07V147.581Z" fill="#E24247"/>
<path d="M133.395 147.581H120.069V160.906H133.395V147.581Z" fill="#E24247"/>
<path d="M146.721 147.581H133.396V160.906H146.721V147.581Z" fill="#E24247"/>
<path d="M160.046 147.581H146.721V160.906H160.046V147.581Z" fill="#E24247"/>
<path d="M173.344 147.581H160.046V160.906H173.344V147.581Z" fill="#E24247"/>
<path d="M13.547 134.229H0.22168V147.582H13.547V134.229Z" fill="#E24247"/>
<path d="M26.8722 134.229H13.5469V147.582H26.8722V134.229Z" fill="#D56949"/>
<path d="M40.1707 134.229H26.8721V147.582H40.1707V134.229Z" fill="#C35F3F"/>
<path d="M53.4963 134.229H40.1709V147.582H53.4963V134.229Z" fill="#D56949"/>
<path d="M66.8215 134.229H53.4961V147.582H66.8215V134.229Z" fill="#D56949"/>
<path d="M80.1199 134.229H66.8213V147.582H80.1199V134.229Z" fill="#A65136"/>
<path d="M93.4455 134.229H80.1201V147.582H93.4455V134.229Z" fill="#9F93C4"/>
<path d="M106.771 134.229H93.4453V147.582H106.771V134.229Z" fill="#A65136"/>
<path d="M120.07 134.229H106.771V147.582H120.07V134.229Z" fill="#D56949"/>
<path d="M133.395 134.229H120.069V147.582H133.395V134.229Z" fill="#D56949"/>
<path d="M146.721 134.229H133.396V147.582H146.721V134.229Z" fill="#D56949"/>
<path d="M160.046 134.229H146.721V147.582H160.046V134.229Z" fill="#D56949"/>
<path d="M173.344 134.229H160.046V147.582H173.344V134.229Z" fill="#E24247"/>
<path d="M13.547 120.877H0.22168V134.229H13.547V120.877Z" fill="#E24247"/>
<path d="M26.8722 120.877H13.5469V134.229H26.8722V120.877Z" fill="#D56949"/>
<path d="M40.1707 120.877H26.8721V134.229H40.1707V120.877Z" fill="#D56949"/>
<path d="M53.4963 120.877H40.1709V134.229H53.4963V120.877Z" fill="#C35F3F"/>
<path d="M66.8215 120.877H53.4961V134.229H66.8215V120.877Z" fill="#D56949"/>
<path d="M80.1199 120.877H66.8213V134.229H80.1199V120.877Z" fill="#A65136"/>
<path d="M93.4455 120.877H80.1201V134.229H93.4455V120.877Z" fill="#A65136"/>
<path d="M106.771 120.877H93.4453V134.229H106.771V120.877Z" fill="#A65136"/>
<path d="M120.07 120.877H106.771V134.229H120.07V120.877Z" fill="#D56949"/>
<path d="M133.395 120.877H120.069V134.229H133.395V120.877Z" fill="#C35F3F"/>
<path d="M146.721 120.877H133.396V134.229H146.721V120.877Z" fill="#D56949"/>
<path d="M160.046 120.877H146.721V134.229H160.046V120.877Z" fill="#D56949"/>
<path d="M13.547 107.552H0.22168V120.877H13.547V107.552Z" fill="#E24247"/>
<path d="M26.8722 107.552H13.5469V120.877H26.8722V107.552Z" fill="#D56949"/>
<path d="M40.1707 107.552H26.8721V120.877H40.1707V107.552Z" fill="#D56949"/>
<path d="M53.4963 107.552H40.1709V120.877H53.4963V107.552Z" fill="#D56949"/>
<path d="M66.8215 107.552H53.4961V120.877H66.8215V107.552Z" fill="#D56949"/>
<path d="M80.1199 107.552H66.8213V120.877H80.1199V107.552Z" fill="#A65136"/>
<path d="M93.4455 107.552H80.1201V120.877H93.4455V107.552Z" fill="#9F93C4"/>
<path d="M106.771 107.552H93.4453V120.877H106.771V107.552Z" fill="#A65136"/>
<path d="M120.07 107.552H106.771V120.877H120.07V107.552Z" fill="#C35F3F"/>
<path d="M133.395 107.552H120.069V120.877H133.395V107.552Z" fill="#CEBFFF"/>
<path d="M146.721 107.552H133.396V120.877H146.721V107.552Z" fill="#A65136"/>
<path d="M160.046 107.552H146.721V120.877H160.046V107.552Z" fill="#CEBFFF"/>
<path d="M173.344 107.552H160.046V120.877H173.344V107.552Z" fill="#E24247"/>
<path d="M13.547 94.1992H0.22168V107.551H13.547V94.1992Z" fill="#C35F3F"/>
<path d="M26.8722 94.1992H13.5469V107.551H26.8722V94.1992Z" fill="#D56949"/>
<path d="M40.1707 94.1992H26.8721V107.551H40.1707V94.1992Z" fill="#D56949"/>
<path d="M53.4963 94.1992H40.1709V107.551H53.4963V94.1992Z" fill="#C35F3F"/>
<path d="M66.8215 94.1992H53.4961V107.551H66.8215V94.1992Z" fill="#D56949"/>
<path d="M80.1199 94.1992H66.8213V107.551H80.1199V94.1992Z" fill="#A65136"/>
<path d="M93.4455 94.1992H80.1201V107.551H93.4455V94.1992Z" fill="#A65136"/>
<path d="M106.771 94.1992H93.4453V107.551H106.771V94.1992Z" fill="#A65136"/>
<path d="M120.07 94.1992H106.771V107.551H120.07V94.1992Z" fill="#C35F3F"/>
<path d="M133.395 94.1992H120.069V107.551H133.395V94.1992Z" fill="#A65136"/>
<path d="M146.721 94.1992H133.396V107.551H146.721V94.1992Z" fill="#A65136"/>
<path d="M160.046 94.1992H146.721V107.551H160.046V94.1992Z" fill="#D56949"/>
<path d="M173.344 94.1992H160.046V107.551H173.344V94.1992Z" fill="#E24247"/>
<path d="M13.547 80.8477H0.22168V94.1998H13.547V80.8477Z" fill="#CEBFFF"/>
<path d="M26.8722 80.8477H13.5469V94.1998H26.8722V80.8477Z" fill="#C35F3F"/>
<path d="M40.1707 80.8477H26.8721V94.1998H40.1707V80.8477Z" fill="#CEBFFF"/>
<path d="M53.4963 80.8477H40.1709V94.1998H53.4963V80.8477Z" fill="#A65136"/>
<path d="M66.8215 80.8477H53.4961V94.1998H66.8215V80.8477Z" fill="#CEBFFF"/>
<path d="M80.1199 80.8477H66.8213V94.1998H80.1199V80.8477Z" fill="#A65136"/>
<path d="M93.4455 80.8477H80.1201V94.1998H93.4455V80.8477Z" fill="#9F93C4"/>
<path d="M106.771 80.8477H93.4453V94.1998H106.771V80.8477Z" fill="#A65136"/>
<path d="M120.07 80.8477H106.771V94.1998H120.07V80.8477Z" fill="#C35F3F"/>
<path d="M133.395 80.8477H120.069V94.1998H133.395V80.8477Z" fill="#A65136"/>
<path d="M146.721 80.8477H133.396V94.1998H146.721V80.8477Z" fill="#A65136"/>
<path d="M160.046 80.8477H146.721V94.1998H160.046V80.8477Z" fill="#D56949"/>
<path d="M173.344 80.8477H160.046V94.1998H173.344V80.8477Z" fill="#E24247"/>
<path d="M13.547 67.5215H0.22168V80.8468H13.547V67.5215Z" fill="#C35F3F"/>
<path d="M26.8722 67.5215H13.5469V80.8468H26.8722V67.5215Z" fill="#D56949"/>
<path d="M40.1707 67.5215H26.8721V80.8468H40.1707V67.5215Z" fill="#D56949"/>
<path d="M53.4963 67.5215H40.1709V80.8468H53.4963V67.5215Z" fill="#A65136"/>
<path d="M66.8215 67.5215H53.4961V80.8468H66.8215V67.5215Z" fill="#C35F3F"/>
<path d="M80.1199 67.5215H66.8213V80.8468H80.1199V67.5215Z" fill="#A65136"/>
<path d="M93.4455 67.5215H80.1201V80.8468H93.4455V67.5215Z" fill="#A65136"/>
<path d="M106.771 67.5215H93.4453V80.8468H106.771V67.5215Z" fill="#A65136"/>
<path d="M120.07 67.5215H106.771V80.8468H120.07V67.5215Z" fill="#CEBFFF"/>
<path d="M133.395 67.5215H120.069V80.8468H133.395V67.5215Z" fill="#C35F3F"/>
<path d="M146.721 67.5215H133.396V80.8468H146.721V67.5215Z" fill="#D56949"/>
<path d="M160.046 67.5215H146.721V80.8468H160.046V67.5215Z" fill="#D56949"/>
<path d="M173.344 67.5215H160.046V80.8468H173.344V67.5215Z" fill="#E24247"/>
<path d="M13.547 54.1699H0.22168V67.522H13.547V54.1699Z" fill="#E24247"/>
<path d="M26.8722 54.1699H13.5469V67.522H26.8722V54.1699Z" fill="#D56949"/>
<path d="M40.1707 54.1699H26.8721V67.522H40.1707V54.1699Z" fill="#D56949"/>
<path d="M53.4963 54.1699H40.1709V67.522H53.4963V54.1699Z" fill="#C35F3F"/>
<path d="M66.8215 54.1699H53.4961V67.522H66.8215V54.1699Z" fill="#D56949"/>
<path d="M80.1199 54.1699H66.8213V67.522H80.1199V54.1699Z" fill="#A65136"/>
<path d="M93.4455 54.1699H80.1201V67.522H93.4455V54.1699Z" fill="#A65136"/>
<path d="M106.771 54.1699H93.4453V67.522H106.771V54.1699Z" fill="#A65136"/>
<path d="M120.07 54.1699H106.771V67.522H120.07V54.1699Z" fill="#D56949"/>
<path d="M133.395 54.1699H120.069V67.522H133.395V54.1699Z" fill="#D56949"/>
<path d="M146.721 54.1699H133.396V67.522H146.721V54.1699Z" fill="#D56949"/>
<path d="M160.046 54.1699H146.721V67.522H160.046V54.1699Z" fill="#D56949"/>
<path d="M173.344 54.1699H160.046V67.522H173.344V54.1699Z" fill="#E24247"/>
<path d="M13.547 40.8174H0.22168V54.1695H13.547V40.8174Z" fill="#E24247"/>
<path d="M26.8722 40.8174H13.5469V54.1695H26.8722V40.8174Z" fill="#D56949"/>
<path d="M40.1707 40.8174H26.8721V54.1695H40.1707V40.8174Z" fill="#E24247"/>
<path d="M53.4963 40.8174H40.1709V54.1695H53.4963V40.8174Z" fill="#D56949"/>
<path d="M66.8215 40.8174H53.4961V54.1695H66.8215V40.8174Z" fill="#D56949"/>
<path d="M80.1199 40.8174H66.8213V54.1695H80.1199V40.8174Z" fill="#A65136"/>
<path d="M93.4455 40.8174H80.1201V54.1695H93.4455V40.8174Z" fill="#A65136"/>
<path d="M106.771 40.8174H93.4453V54.1695H106.771V40.8174Z" fill="#A65136"/>
<path d="M120.07 40.8174H106.771V54.1695H120.07V40.8174Z" fill="#CEBFFF"/>
<path d="M133.395 40.8174H120.069V54.1695H133.395V40.8174Z" fill="#D56949"/>
<path d="M146.721 40.8174H133.396V54.1695H146.721V40.8174Z" fill="#D56949"/>
<path d="M160.046 40.8174H146.721V54.1695H160.046V40.8174Z" fill="#A65136"/>
<path d="M173.344 40.8174H160.046V54.1695H173.344V40.8174Z" fill="#E24247"/>
<path d="M13.547 27.4658H0.22168V40.8179H13.547V27.4658Z" fill="#E24247"/>
<path d="M26.8722 27.4658H13.5469V40.8179H26.8722V27.4658Z" fill="#E24247"/>
<path d="M40.1707 27.4658H26.8721V40.8179H40.1707V27.4658Z" fill="#E24247"/>
<path d="M53.4963 27.4658H40.1709V40.8179H53.4963V27.4658Z" fill="#E24247"/>
<path d="M66.8215 27.4658H53.4961V40.8179H66.8215V27.4658Z" fill="#E24247"/>
<path d="M80.1199 27.4658H66.8213V40.8179H80.1199V27.4658Z" fill="#C73A3E"/>
<path d="M93.4455 27.4658H80.1201V40.8179H93.4455V27.4658Z" fill="#C73A3E"/>
<path d="M106.771 27.4658H93.4453V40.8179H106.771V27.4658Z" fill="#C73A3E"/>
<path d="M120.07 27.4658H106.771V40.8179H120.07V27.4658Z" fill="#E24247"/>
<path d="M133.395 27.4658H120.069V40.8179H133.395V27.4658Z" fill="#E24247"/>
<path d="M146.721 27.4658H133.396V40.8179H146.721V27.4658Z" fill="#E24247"/>
<path d="M160.046 27.4658H146.721V40.8179H160.046V27.4658Z" fill="#E24247"/>
<path d="M173.344 27.4658H160.046V40.8179H173.344V27.4658Z" fill="#E24247"/>
<path d="M13.547 14.1406H0.22168V27.466H13.547V14.1406Z" fill="#C35F3F"/>
<path d="M26.8722 14.1406H13.5469V27.466H26.8722V14.1406Z" fill="#E24247"/>
<path d="M53.4963 14.1406H40.1709V27.466H53.4963V14.1406Z" fill="#E24247"/>
<path d="M66.8215 14.1406H53.4961V27.466H66.8215V14.1406Z" fill="#E24247"/>
<path d="M80.1199 14.1406H66.8213V27.466H80.1199V14.1406Z" fill="#C73A3E"/>
<path d="M93.4455 14.1406H80.1201V27.466H93.4455V14.1406Z" fill="#C73A3E"/>
<path d="M120.07 14.1406H106.771V27.466H120.07V14.1406Z" fill="#CEBFFF"/>
<path d="M133.395 14.1406H120.069V27.466H133.395V14.1406Z" fill="#E24247"/>
<path d="M146.721 14.1406H133.396V27.466H146.721V14.1406Z" fill="#E24247"/>
<path d="M160.046 14.1406H146.721V27.466H160.046V14.1406Z" fill="#E24247"/>
<path d="M173.344 14.1406H160.046V27.466H173.344V14.1406Z" fill="#E24247"/>
<path d="M13.547 0.788086H0.22168V14.1402H13.547V0.788086Z" fill="#E24247"/>
<path d="M173.344 0.788086H160.046V14.1402H173.344V0.788086Z" fill="#E24247"/>
</svg>
