<svg width="256" height="256" viewBox="0 0 256 256" fill="none" xmlns="http://www.w3.org/2000/svg">
<g clip-path="url(#clip0_1_16)">
<path d="M226.41 39.7V20.03H206.69H187.02V0.389999H167.31H147.59H127.92V20.03H108.2H88.49V39.7V59.37V79.05V98.68V118.36V138.03V157.67H68.78V138.03H49.1V118.36H29.39H9.66998V138.03V157.67H29.39V177.34V197.02H49.1V216.65H68.78V236.33H88.49V256H108.2H127.92H147.59H167.31H187.02H206.69H226.41V236.33H246.12V216.65V197.02V177.34V157.67V138.03V118.36V98.68V79.05V59.37V39.7H226.41Z" fill="#5FB097"/>
</g>
<defs>
<clipPath id="clip0_1_16">
<rect width="256" height="256" fill="white"/>
</clipPath>
</defs>
</svg>
