<svg width="31" height="28" viewBox="0 0 31 28" fill="none" xmlns="http://www.w3.org/2000/svg">
<path d="M3.04687 15.3054L3.04688 12.7861L0.527583 12.7861L0.527583 15.3054L3.04687 15.3054Z" fill="white"/>
<path d="M5.57153 12.7867L5.57153 10.2725L3.04718 10.2725L3.04718 12.7867L5.57153 12.7867Z" fill="white"/>
<path d="M5.57153 15.3054L5.57153 12.7861L3.04718 12.7861L3.04718 15.3054L5.57153 15.3054Z" fill="white"/>
<path d="M5.57153 17.825L5.57153 15.3057L3.04718 15.3057L3.04718 17.825L5.57153 17.825Z" fill="white"/>
<path d="M8.09595 10.2722L8.09595 7.75293L5.5716 7.75293L5.5716 10.2722L8.09595 10.2722Z" fill="white"/>
<path d="M8.09595 12.7867L8.09595 10.2725L5.5716 10.2725L5.5716 12.7867L8.09595 12.7867Z" fill="white"/>
<path d="M8.09595 15.3054L8.09595 12.7861L5.5716 12.7861L5.5716 15.3054L8.09595 15.3054Z" fill="white"/>
<path d="M8.09595 17.825L8.09595 15.3057L5.5716 15.3057L5.5716 17.825L8.09595 17.825Z" fill="white"/>
<path d="M8.09595 20.3394L8.09595 17.8252L5.5716 17.8252L5.5716 20.3394L8.09595 20.3394Z" fill="white"/>
<path d="M10.6147 7.75269L10.6147 5.2334L8.09545 5.2334L8.09545 7.75269L10.6147 7.75269Z" fill="white"/>
<path d="M10.6147 10.2722L10.6147 7.75293L8.09545 7.75293L8.09545 10.2722L10.6147 10.2722Z" fill="white"/>
<path d="M10.6147 12.7867L10.6147 10.2725L8.09545 10.2725L8.09545 12.7867L10.6147 12.7867Z" fill="white"/>
<path d="M10.6147 15.3054L10.6147 12.7861L8.09545 12.7861L8.09545 15.3054L10.6147 15.3054Z" fill="white"/>
<path d="M10.6147 17.825L10.6147 15.3057L8.09545 15.3057L8.09545 17.825L10.6147 17.825Z" fill="white"/>
<path d="M10.6147 20.3394L10.6147 17.8252L8.09545 17.8252L8.09545 20.3394L10.6147 20.3394Z" fill="white"/>
<path d="M10.6147 22.8582L10.6147 20.3389L8.09545 20.3389L8.09545 22.8582L10.6147 22.8582Z" fill="white"/>
<path d="M13.1394 5.23396L13.1394 2.71973L10.6151 2.71973L10.6151 5.23396L13.1394 5.23396Z" fill="white"/>
<path d="M13.1394 7.75269L13.1394 5.2334L10.6151 5.2334L10.6151 7.75269L13.1394 7.75269Z" fill="white"/>
<path d="M13.1394 10.2722L13.1394 7.75293L10.6151 7.75293L10.6151 10.2722L13.1394 10.2722Z" fill="white"/>
<path d="M13.1394 12.7867L13.1394 10.2725L10.6151 10.2725L10.6151 12.7867L13.1394 12.7867Z" fill="white"/>
<path d="M13.1394 15.3054L13.1394 12.7861L10.6151 12.7861L10.6151 15.3054L13.1394 15.3054Z" fill="white"/>
<path d="M13.1394 17.825L13.1394 15.3057L10.6151 15.3057L10.6151 17.825L13.1394 17.825Z" fill="white"/>
<path d="M13.1394 20.3394L13.1394 17.8252L10.6151 17.8252L10.6151 20.3394L13.1394 20.3394Z" fill="white"/>
<path d="M13.1394 22.8582L13.1394 20.3389L10.6151 20.3389L10.6151 22.8582L13.1394 22.8582Z" fill="white"/>
<path d="M13.1394 25.3777L13.1394 22.8584L10.6151 22.8584L10.6151 25.3777L13.1394 25.3777Z" fill="white"/>
<path d="M15.6638 2.71949L15.6638 0.200195L13.1395 0.200195L13.1395 2.71949L15.6638 2.71949Z" fill="white"/>
<path d="M15.6638 5.23396L15.6638 2.71973L13.1395 2.71973L13.1395 5.23396L15.6638 5.23396Z" fill="white"/>
<path d="M15.6638 7.75269L15.6638 5.2334L13.1395 5.2334L13.1395 7.75269L15.6638 7.75269Z" fill="white"/>
<path d="M15.6638 10.2722L15.6638 7.75293L13.1395 7.75293L13.1395 10.2722L15.6638 10.2722Z" fill="white"/>
<path d="M15.6638 12.7867L15.6638 10.2725L13.1395 10.2725L13.1395 12.7867L15.6638 12.7867Z" fill="white"/>
<path d="M15.6638 15.3054L15.6638 12.7861L13.1395 12.7861L13.1395 15.3054L15.6638 15.3054Z" fill="white"/>
<path d="M15.6638 17.825L15.6638 15.3057L13.1395 15.3057L13.1395 17.825L15.6638 17.825Z" fill="white"/>
<path d="M15.6638 20.3394L15.6638 17.8252L13.1395 17.8252L13.1395 20.3394L15.6638 20.3394Z" fill="white"/>
<path d="M15.6638 22.8582L15.6638 20.3389L13.1395 20.3389L13.1395 22.8582L15.6638 22.8582Z" fill="white"/>
<path d="M15.6638 25.3777L15.6638 22.8584L13.1395 22.8584L13.1395 25.3777L15.6638 25.3777Z" fill="white"/>
<path d="M15.6638 27.8972L15.6638 25.3779L13.1395 25.3779L13.1395 27.8972L15.6638 27.8972Z" fill="white"/>
<path d="M18.1829 10.2722L18.1829 7.75293L15.6636 7.75293L15.6636 10.2722L18.1829 10.2722Z" fill="white"/>
<path d="M18.1829 12.7867L18.1829 10.2725L15.6636 10.2725L15.6636 12.7867L18.1829 12.7867Z" fill="white"/>
<path d="M18.1829 15.3054L18.1829 12.7861L15.6636 12.7861L15.6636 15.3054L18.1829 15.3054Z" fill="white"/>
<path d="M18.1829 17.825L18.1829 15.3057L15.6636 15.3057L15.6636 17.825L18.1829 17.825Z" fill="white"/>
<path d="M18.1829 20.3394L18.1829 17.8252L15.6636 17.8252L15.6636 20.3394L18.1829 20.3394Z" fill="white"/>
<path d="M20.7073 10.2722L20.7073 7.75293L18.1829 7.75293L18.1829 10.2722L20.7073 10.2722Z" fill="white"/>
<path d="M20.7073 12.7867L20.7073 10.2725L18.1829 10.2725L18.1829 12.7867L20.7073 12.7867Z" fill="white"/>
<path d="M20.7073 15.3054L20.7073 12.7861L18.1829 12.7861L18.1829 15.3054L20.7073 15.3054Z" fill="white"/>
<path d="M20.7073 17.825L20.7073 15.3057L18.1829 15.3057L18.1829 17.825L20.7073 17.825Z" fill="white"/>
<path d="M20.7073 20.3394L20.7073 17.8252L18.1829 17.8252L18.1829 20.3394L20.7073 20.3394Z" fill="white"/>
<path d="M23.2317 10.2722L23.2317 7.75293L20.7073 7.75293L20.7073 10.2722L23.2317 10.2722Z" fill="white"/>
<path d="M23.2317 12.7867L23.2317 10.2725L20.7073 10.2725L20.7073 12.7867L23.2317 12.7867Z" fill="white"/>
<path d="M23.2317 15.3054L23.2317 12.7861L20.7073 12.7861L20.7073 15.3054L23.2317 15.3054Z" fill="white"/>
<path d="M23.2317 17.825L23.2317 15.3057L20.7073 15.3057L20.7073 17.825L23.2317 17.825Z" fill="white"/>
<path d="M23.2317 20.3394L23.2317 17.8252L20.7073 17.8252L20.7073 20.3394L23.2317 20.3394Z" fill="white"/>
<path d="M25.7561 10.2722L25.7561 7.75293L23.2317 7.75293L23.2317 10.2722L25.7561 10.2722Z" fill="white"/>
<path d="M25.7561 12.7867L25.7561 10.2725L23.2317 10.2725L23.2317 12.7867L25.7561 12.7867Z" fill="white"/>
<path d="M25.7561 15.3054L25.7561 12.7861L23.2317 12.7861L23.2317 15.3054L25.7561 15.3054Z" fill="white"/>
<path d="M25.7561 17.825L25.7561 15.3057L23.2317 15.3057L23.2317 17.825L25.7561 17.825Z" fill="white"/>
<path d="M25.7561 20.3394L25.7561 17.8252L23.2317 17.8252L23.2317 20.3394L25.7561 20.3394Z" fill="white"/>
<path d="M28.2754 10.2722L28.2754 7.75293L25.7561 7.75293L25.7561 10.2722L28.2754 10.2722Z" fill="white"/>
<path d="M28.2754 12.7867L28.2754 10.2725L25.7561 10.2725L25.7561 12.7867L28.2754 12.7867Z" fill="white"/>
<path d="M28.2754 15.3054L28.2754 12.7861L25.7561 12.7861L25.7561 15.3054L28.2754 15.3054Z" fill="white"/>
<path d="M28.2754 17.825L28.2754 15.3057L25.7561 15.3057L25.7561 17.825L28.2754 17.825Z" fill="white"/>
<path d="M28.2754 20.3394L28.2754 17.8252L25.7561 17.8252L25.7561 20.3394L28.2754 20.3394Z" fill="white"/>
<path d="M30.7998 12.7867L30.7998 10.2725L28.2755 10.2725L28.2755 12.7867L30.7998 12.7867Z" fill="white"/>
<path d="M30.7998 15.3054L30.7998 12.7861L28.2755 12.7861L28.2755 15.3054L30.7998 15.3054Z" fill="white"/>
<path d="M30.7998 17.825L30.7998 15.3057L28.2755 15.3057L28.2755 17.825L30.7998 17.825Z" fill="white"/>
</svg>
