<svg viewBox="0 0 24 24" fill="none" xmlns="http://www.w3.org/2000/svg"><path d="M4.32 20.777h15.36v-2.195H4.32v2.195zM17.485 12h-2.281a1.01 1.01 0 01-1.01-1.01v-.324c0-.939.304-1.831.736-2.665a3.25 3.25 0 00.31-2.071c-.232-1.33-1.319-2.424-2.649-2.656a3.294 3.294 0 00-3.883 3.24c0 .485.107.944.298 1.357.457.99.8 2.027.8 3.117v.002A1.01 1.01 0 018.796 12H6.514a3.291 3.291 0 00-3.291 3.291v1.097c0 .606.491 1.097 1.097 1.097h15.36c.606 0 1.097-.491 1.097-1.097v-1.097A3.291 3.291 0 0017.485 12z" fill="#fff"></path></svg>
