<svg width="256" height="256" viewBox="0 0 256 256" fill="none" xmlns="http://www.w3.org/2000/svg">
<path d="M226.32 182.67V159.21H202.8V135.79H179.29V119.51L189.22 109.59L205.81 92.99L222.44 76.37L205.85 59.78L222.47 43.15L205.88 26.56L189.32 10L172.7 26.63L156.1 10.03L139.48 26.66L122.89 10.07L106.29 26.66L89.74 10.1L73.11 26.73L56.52 10.13L39.89 26.76L23.3 10.17L6.67998 26.79L23.27 43.38L6.67998 59.98L23.27 76.57L6.63998 93.19L23.2 109.75L6.57998 126.38L23.17 142.97L6.57998 159.56L23.17 176.15L6.53998 192.78L23.1 209.34L39.69 225.93L56.32 209.3L72.91 225.9L89.5 209.3L106.13 192.68L116.14 182.67H132.32V206.14H155.83V229.6H179.29V253.02H202.8V229.6H226.32V206.14H249.78V182.67H226.32Z" fill="#54A88A"/>
</svg>
