<svg width="48" height="53" viewBox="0 0 48 53" fill="none" xmlns="http://www.w3.org/2000/svg">
<path d="M44.0239 40.9973L43.9616 44.0938L47.0666 44.1562L47.1289 41.0598L44.0239 40.9973Z" fill="#825F8F"/>
<path d="M44.0866 37.9016L44.0244 40.998L47.1294 41.0605L47.1916 37.964L44.0866 37.9016Z" fill="#825F8F"/>
<path d="M40.9227 40.9368L40.8604 44.0332L43.9654 44.0956L44.0277 40.9992L40.9227 40.9368Z" fill="#825F8F"/>
<path d="M40.9855 37.8333L40.9232 40.9297L44.0282 40.9921L44.0905 37.8957L40.9855 37.8333Z" fill="#825F8F"/>
<path d="M41.0449 34.7491L40.9828 37.8369L44.0878 37.8993L44.1499 34.8115L41.0449 34.7491Z" fill="#825F8F"/>
<path d="M37.8129 40.8674L37.7507 43.9639L40.8557 44.0263L40.9179 40.9299L37.8129 40.8674Z" fill="#825F8F"/>
<path d="M37.8757 37.7727L37.8134 40.8691L40.9184 40.9316L40.9807 37.8351L37.8757 37.7727Z" fill="#825F8F"/>
<path d="M37.9437 34.6807L37.8817 37.7686L40.9867 37.831L41.0488 34.7432L37.9437 34.6807Z" fill="#825F8F"/>
<path d="M38.0033 31.5881L37.941 34.6846L41.0461 34.747L41.1083 31.6506L38.0033 31.5881Z" fill="#9C73AC"/>
<path d="M38.0661 28.4846L38.0038 31.5811L41.1089 31.6435L41.1711 28.5471L38.0661 28.4846Z" fill="#9C73AC"/>
<path d="M38.1255 25.4014L38.0634 28.4893L41.1684 28.5517L41.2305 25.4639L38.1255 25.4014Z" fill="#9C73AC"/>
<path d="M38.1938 22.301L38.1316 25.3975L41.2366 25.4599L41.2989 22.3635L38.1938 22.301Z" fill="#9C73AC"/>
<path d="M38.2565 19.2053L38.1942 22.3018L41.2992 22.3642L41.3615 19.2678L38.2565 19.2053Z" fill="#9C73AC"/>
<path d="M38.316 16.1134L38.254 19.2012L41.359 19.2636L41.4211 16.1758L38.316 16.1134Z" fill="#9C73AC"/>
<path d="M38.3757 13.013L38.3134 16.1094L41.4184 16.1718L41.4807 13.0754L38.3757 13.013Z" fill="#9C73AC"/>
<path d="M38.4384 9.91725L38.3762 13.0137L41.4812 13.0761L41.5434 9.97968L38.4384 9.91725Z" fill="#9C73AC"/>
<path d="M34.7233 40.8108L34.661 43.9072L37.7574 43.9695L37.8197 40.8731L34.7233 40.8108Z" fill="#825F8F"/>
<path d="M34.7861 37.7063L34.7239 40.8027L37.8203 40.865L37.8825 37.7686L34.7861 37.7063Z" fill="#825F8F"/>
<path d="M34.8455 34.6231L34.7834 37.7109L37.8798 37.7732L37.9419 34.6854L34.8455 34.6231Z" fill="#825F8F"/>
<path d="M34.9051 31.5227L34.8429 34.6191L37.9393 34.6814L38.0016 31.585L34.9051 31.5227Z" fill="#9C73AC"/>
<path d="M34.9678 28.427L34.9056 31.5234L38.002 31.5857L38.0642 28.4893L34.9678 28.427Z" fill="#9C73AC"/>
<path d="M35.0274 25.335L34.9653 28.4229L38.0618 28.4851L38.1238 25.3973L35.0274 25.335Z" fill="#9C73AC"/>
<path d="M35.0957 22.2346L35.0334 25.3311L38.1299 25.3933L38.1921 22.2969L35.0957 22.2346Z" fill="#9C73AC"/>
<path d="M35.1584 19.1399L35.0961 22.2363L38.1925 22.2986L38.2548 19.2022L35.1584 19.1399Z" fill="#9C73AC"/>
<path d="M35.2179 16.0479L35.1558 19.1357L38.2522 19.198L38.3143 16.1102L35.2179 16.0479Z" fill="#9C73AC"/>
<path d="M35.2776 12.9465L35.2153 16.043L38.3118 16.1052L38.374 13.0088L35.2776 12.9465Z" fill="#9C73AC"/>
<path d="M35.3403 9.85182L35.2781 12.9482L38.3745 13.0105L38.4367 9.91407L35.3403 9.85182Z" fill="#9C73AC"/>
<path d="M35.4029 6.75612L35.3407 9.85254L38.4371 9.91479L38.4994 6.81837L35.4029 6.75612Z" fill="#9C73AC"/>
<path d="M31.6165 40.7444L31.5543 43.8408L34.6593 43.9032L34.7215 40.8068L31.6165 40.7444Z" fill="#825F8F"/>
<path d="M31.6793 37.6497L31.617 40.7461L34.722 40.8085L34.7843 37.7121L31.6793 37.6497Z" fill="#825F8F"/>
<path d="M31.7388 34.5567L31.6768 37.6445L34.7818 37.707L34.8439 34.6191L31.7388 34.5567Z" fill="#825F8F"/>
<path d="M31.8071 31.4563L31.7448 34.5527L34.8498 34.6152L34.9121 31.5187L31.8071 31.4563Z" fill="#9C73AC"/>
<path d="M31.8698 28.3616L31.8076 31.458L34.9126 31.5204L34.9748 28.424L31.8698 28.3616Z" fill="#9C73AC"/>
<path d="M31.9293 25.2696L31.8672 28.3574L34.9722 28.4198L35.0343 25.332L31.9293 25.2696Z" fill="#9C73AC"/>
<path d="M31.9888 22.177L31.9266 25.2734L35.0316 25.3359L35.0938 22.2394L31.9888 22.177Z" fill="#9C73AC"/>
<path d="M32.0516 19.0735L31.9894 22.1699L35.0944 22.2323L35.1566 19.1359L32.0516 19.0735Z" fill="#9C73AC"/>
<path d="M32.111 15.9903L32.049 19.0781L35.154 19.1405L35.216 16.0527L32.111 15.9903Z" fill="#9C73AC"/>
<path d="M32.1793 12.8899L32.117 15.9863L35.222 16.0488L35.2843 12.9523L32.1793 12.8899Z" fill="#9C73AC"/>
<path d="M32.242 9.7942L32.1797 12.8906L35.2848 12.953L35.347 9.85663L32.242 9.7942Z" fill="#9C73AC"/>
<path d="M32.3049 6.69069L32.2426 9.78711L35.3476 9.84953L35.4099 6.75311L32.3049 6.69069Z" fill="#9C73AC"/>
<path d="M32.3642 3.60749L32.3021 6.69531L35.4071 6.75774L35.4692 3.66992L32.3642 3.60749Z" fill="#9C73AC"/>
<path d="M28.5153 40.6839L28.4531 43.7803L31.5581 43.8427L31.6203 40.7463L28.5153 40.6839Z" fill="#825F8F"/>
<path d="M28.578 37.5891L28.5157 40.6855L31.6208 40.748L31.683 37.6516L28.578 37.5891Z" fill="#825F8F"/>
<path d="M28.6375 34.4971L28.5754 37.585L31.6805 37.6474L31.7425 34.5596L28.6375 34.4971Z" fill="#825F8F"/>
<path d="M28.6973 31.3958L28.635 34.4922L31.74 34.5546L31.8023 31.4582L28.6973 31.3958Z" fill="#9C73AC"/>
<path d="M28.7599 28.301L28.6976 31.3975L31.8027 31.4599L31.8649 28.3635L28.7599 28.301Z" fill="#9C73AC"/>
<path d="M28.8281 25.2091L28.766 28.2969L31.871 28.3593L31.9331 25.2715L28.8281 25.2091Z" fill="#9C73AC"/>
<path d="M28.8877 22.1087L28.8254 25.2051L31.9305 25.2675L31.9927 22.1711L28.8877 22.1087Z" fill="#9C73AC"/>
<path d="M28.9504 19.013L28.8882 22.1094L31.9932 22.1718L32.0555 19.0754L28.9504 19.013Z" fill="#9C73AC"/>
<path d="M29.0098 15.9298L28.9477 19.0176L32.0527 19.08L32.1148 15.9922L29.0098 15.9298Z" fill="#9C73AC"/>
<path d="M29.0695 12.8284L29.0072 15.9248L32.1122 15.9872L32.1745 12.8908L29.0695 12.8284Z" fill="#9C73AC"/>
<path d="M29.1323 9.72487L29.0701 12.8213L32.1751 12.8837L32.2373 9.78729L29.1323 9.72487Z" fill="#9C73AC"/>
<path d="M29.1951 6.63014L29.1328 9.72656L32.2378 9.78899L32.3001 6.69257L29.1951 6.63014Z" fill="#9C73AC"/>
<path d="M29.2629 3.54695L29.2009 6.63477L32.3059 6.69719L32.368 3.60937L29.2629 3.54695Z" fill="#9C73AC"/>
<path d="M29.3226 0.445571L29.2604 3.54199L32.3654 3.60442L32.4276 0.507994L29.3226 0.445571Z" fill="#9C73AC"/>
<path d="M25.2894 46.8108L25.2272 49.9072L28.3236 49.9695L28.3858 46.8731L25.2894 46.8108Z" fill="#9C73AC"/>
<path d="M25.4172 40.6184L25.355 43.7148L28.4514 43.7771L28.5136 40.6807L25.4172 40.6184Z" fill="#825F8F"/>
<path d="M25.4799 37.5227L25.4176 40.6191L28.514 40.6814L28.5763 37.585L25.4799 37.5227Z" fill="#825F8F"/>
<path d="M25.5394 34.4307L25.4774 37.5186L28.5738 37.5808L28.6359 34.493L25.5394 34.4307Z" fill="#825F8F"/>
<path d="M25.599 31.3391L25.5367 34.4355L28.6332 34.4978L28.6954 31.4014L25.599 31.3391Z" fill="#9C73AC"/>
<path d="M25.6618 28.2346L25.5995 31.3311L28.696 31.3933L28.7582 28.2969L25.6618 28.2346Z" fill="#9C73AC"/>
<path d="M25.7298 25.1514L25.6677 28.2393L28.7641 28.3015L28.8262 25.2137L25.7298 25.1514Z" fill="#9C73AC"/>
<path d="M25.7894 22.051L25.7272 25.1475L28.8236 25.2097L28.8858 22.1133L25.7894 22.051Z" fill="#9C73AC"/>
<path d="M25.8522 18.9553L25.7899 22.0518L28.8863 22.114L28.9486 19.0176L25.8522 18.9553Z" fill="#9C73AC"/>
<path d="M25.9116 15.8634L25.8495 18.9512L28.946 19.0134L29.008 15.9256L25.9116 15.8634Z" fill="#9C73AC"/>
<path d="M25.98 12.763L25.9177 15.8594L29.0141 15.9216L29.0764 12.8252L25.98 12.763Z" fill="#9C73AC"/>
<path d="M26.0426 9.66823L25.9803 12.7646L29.0768 12.8269L29.139 9.73048L26.0426 9.66823Z" fill="#9C73AC"/>
<path d="M26.1053 6.57252L26.0431 9.66895L29.1395 9.7312L29.2018 6.63477L26.1053 6.57252Z" fill="#9C73AC"/>
<path d="M26.1648 3.48054L26.1027 6.56836L29.1991 6.63061L29.2612 3.54279L26.1648 3.48054Z" fill="#9C73AC"/>
<path d="M26.2245 0.380144L26.1623 3.47656L29.2587 3.53881L29.321 0.442395L26.2245 0.380144Z" fill="#9C73AC"/>
<path d="M22.1285 49.8401L22.0663 52.9365L25.1713 52.9989L25.2336 49.9025L22.1285 49.8401Z" fill="#9C73AC"/>
<path d="M22.1913 46.7454L22.129 49.8418L25.234 49.9042L25.2963 46.8078L22.1913 46.7454Z" fill="#9C73AC"/>
<path d="M22.3103 40.5608L22.248 43.6572L25.3531 43.7196L25.4153 40.6232L22.3103 40.5608Z" fill="#825F8F"/>
<path d="M22.3732 37.4573L22.311 40.5537L25.416 40.6161L25.4782 37.5197L22.3732 37.4573Z" fill="#825F8F"/>
<path d="M22.4326 34.3731L22.3705 37.4609L25.4755 37.5234L25.5376 34.4355L22.4326 34.3731Z" fill="#825F8F"/>
<path d="M22.5008 31.2727L22.4386 34.3691L25.5436 34.4316L25.6059 31.3351L22.5008 31.2727Z" fill="#9C73AC"/>
<path d="M22.5635 28.178L22.5013 31.2744L25.6063 31.3368L25.6686 28.2404L22.5635 28.178Z" fill="#9C73AC"/>
<path d="M22.6231 25.086L22.561 28.1738L25.666 28.2363L25.7281 25.1484L22.6231 25.086Z" fill="#9C73AC"/>
<path d="M22.6827 21.9846L22.6205 25.0811L25.7255 25.1435L25.7878 22.0471L22.6827 21.9846Z" fill="#9C73AC"/>
<path d="M22.7455 18.8899L22.6832 21.9863L25.7882 22.0488L25.8505 18.9523L22.7455 18.8899Z" fill="#9C73AC"/>
<path d="M22.8135 15.7979L22.7515 18.8857L25.8565 18.9482L25.9186 15.8603L22.8135 15.7979Z" fill="#9C73AC"/>
<path d="M22.8732 12.6975L22.811 15.7939L25.916 15.8564L25.9782 12.7599L22.8732 12.6975Z" fill="#9C73AC"/>
<path d="M22.936 9.60182L22.8737 12.6982L25.9787 12.7607L26.041 9.66425L22.936 9.60182Z" fill="#9C73AC"/>
<path d="M22.9987 6.5071L22.9364 9.60352L26.0414 9.66594L26.1037 6.56952L22.9987 6.5071Z" fill="#9C73AC"/>
<path d="M23.0582 3.41511L22.9961 6.50293L26.1011 6.56535L26.1632 3.47753L23.0582 3.41511Z" fill="#9C73AC"/>
<path d="M23.1265 0.313737L23.0642 3.41016L26.1692 3.47258L26.2315 0.37616L23.1265 0.313737Z" fill="#9C73AC"/>
<path d="M19.0187 49.7796L18.9565 52.876L22.0615 52.9384L22.1238 49.842L19.0187 49.7796Z" fill="#9C73AC"/>
<path d="M19.0814 46.6848L19.0192 49.7812L22.1242 49.8437L22.1864 46.7473L19.0814 46.6848Z" fill="#9C73AC"/>
<path d="M19.2092 40.4915L19.147 43.5879L22.252 43.6503L22.3142 40.5539L19.2092 40.4915Z" fill="#825F8F"/>
<path d="M19.272 37.3967L19.2097 40.4932L22.3147 40.5556L22.377 37.4592L19.272 37.3967Z" fill="#825F8F"/>
<path d="M19.3313 34.3126L19.2692 37.4004L22.3742 37.4628L22.4363 34.375L19.3313 34.3126Z" fill="#825F8F"/>
<path d="M19.3996 31.2122L19.3373 34.3086L22.4424 34.371L22.5046 31.2746L19.3996 31.2122Z" fill="#9C73AC"/>
<path d="M19.4539 28.1087L19.3916 31.2051L22.4966 31.2675L22.5589 28.1711L19.4539 28.1087Z" fill="#9C73AC"/>
<path d="M19.5218 25.0255L19.4597 28.1133L22.5647 28.1757L22.6268 25.0879L19.5218 25.0255Z" fill="#9C73AC"/>
<path d="M19.5815 21.9241L19.5192 25.0205L22.6242 25.0829L22.6865 21.9865L19.5815 21.9241Z" fill="#9C73AC"/>
<path d="M19.6442 18.8294L19.5819 21.9258L22.6869 21.9882L22.7492 18.8918L19.6442 18.8294Z" fill="#9C73AC"/>
<path d="M19.7037 15.7374L19.6416 18.8252L22.7466 18.8876L22.8087 15.7998L19.7037 15.7374Z" fill="#9C73AC"/>
<path d="M19.772 12.637L19.7097 15.7334L22.8147 15.7958L22.877 12.6994L19.772 12.637Z" fill="#9C73AC"/>
<path d="M19.8347 9.54128L19.7725 12.6377L22.8775 12.7001L22.9397 9.6037L19.8347 9.54128Z" fill="#9C73AC"/>
<path d="M19.8973 6.44655L19.8351 9.54297L22.9401 9.60539L23.0024 6.50897L19.8973 6.44655Z" fill="#9C73AC"/>
<path d="M19.9569 3.35456L19.8948 6.44238L22.9999 6.50481L23.0619 3.41699L19.9569 3.35456Z" fill="#9C73AC"/>
<path d="M20.0166 0.25319L19.9543 3.34961L23.0594 3.41203L23.1216 0.315613L20.0166 0.25319Z" fill="#9C73AC"/>
<path d="M15.9833 46.6184L15.921 49.7148L19.0174 49.7771L19.0797 46.6807L15.9833 46.6184Z" fill="#9C73AC"/>
<path d="M16.111 40.4348L16.0488 43.5312L19.1452 43.5935L19.2074 40.4971L16.111 40.4348Z" fill="#825F8F"/>
<path d="M16.1736 37.3391L16.1114 40.4355L19.2078 40.4978L19.2701 37.4014L16.1736 37.3391Z" fill="#825F8F"/>
<path d="M16.2332 34.2471L16.1711 37.335L19.2676 37.3972L19.3296 34.3094L16.2332 34.2471Z" fill="#825F8F"/>
<path d="M16.3014 31.1467L16.2392 34.2432L19.3356 34.3054L19.3979 31.209L16.3014 31.1467Z" fill="#9C73AC"/>
<path d="M16.3642 28.051L16.3019 31.1475L19.3984 31.2097L19.4606 28.1133L16.3642 28.051Z" fill="#F6E1FF"/>
<path d="M16.4236 24.9591L16.3616 28.0469L19.458 28.1091L19.5201 25.0213L16.4236 24.9591Z" fill="#F6E1FF"/>
<path d="M16.4834 21.8587L16.4211 24.9551L19.5176 25.0173L19.5798 21.9209L16.4834 21.8587Z" fill="#F6E1FF"/>
<path d="M16.546 18.7639L16.4838 21.8604L19.5802 21.9226L19.6424 18.8262L16.546 18.7639Z" fill="#F6E1FF"/>
<path d="M16.6056 15.671L16.5435 18.7588L19.6399 18.821L19.702 15.7332L16.6056 15.671Z" fill="#F6E1FF"/>
<path d="M16.6738 12.5794L16.6115 15.6758L19.7079 15.738L19.7702 12.6416L16.6738 12.5794Z" fill="#F6E1FF"/>
<path d="M16.7366 9.47585L16.6743 12.5723L19.7707 12.6345L19.833 9.5381L16.7366 9.47585Z" fill="#9C73AC"/>
<path d="M16.7992 6.38014L16.737 9.47656L19.8334 9.53881L19.8957 6.44239L16.7992 6.38014Z" fill="#9C73AC"/>
<path d="M16.8586 3.29695L16.7965 6.38477L19.8929 6.44702L19.955 3.3592L16.8586 3.29695Z" fill="#9C73AC"/>
<path d="M16.9183 0.196549L16.8561 3.29297L19.9525 3.35522L20.0147 0.2588L16.9183 0.196549Z" fill="#9C73AC"/>
<path d="M13.0043 40.3684L12.942 43.4648L16.047 43.5273L16.1093 40.4308L13.0043 40.3684Z" fill="#825F8F"/>
<path d="M13.067 37.2737L13.0047 40.3701L16.1097 40.4325L16.172 37.3361L13.067 37.2737Z" fill="#825F8F"/>
<path d="M13.1351 34.1817L13.073 37.2695L16.178 37.332L16.2401 34.2441L13.1351 34.1817Z" fill="#825F8F"/>
<path d="M13.1948 31.0803L13.1325 34.1768L16.2375 34.2392L16.2998 31.1428L13.1948 31.0803Z" fill="#F6E1FF"/>
<path d="M13.2575 27.9856L13.1953 31.082L16.3003 31.1445L16.3625 28.048L13.2575 27.9856Z" fill="#F6E1FF"/>
<path d="M13.3168 24.9014L13.2547 27.9893L16.3597 28.0517L16.4218 24.9639L13.3168 24.9014Z" fill="#F6E1FF"/>
<path d="M13.3851 21.801L13.3229 24.8975L16.4279 24.9599L16.4901 21.8635L13.3851 21.801Z" fill="#F6E1FF"/>
<path d="M13.4477 18.7063L13.3855 21.8027L16.4905 21.8652L16.5528 18.7687L13.4477 18.7063Z" fill="#F6E1FF"/>
<path d="M13.5073 15.6143L13.4453 18.7021L16.5503 18.7646L16.6124 15.6768L13.5073 15.6143Z" fill="#F6E1FF"/>
<path d="M13.5671 12.513L13.5048 15.6094L16.6098 15.6718L16.6721 12.5754L13.5671 12.513Z" fill="#F6E1FF"/>
<path d="M13.6297 9.41823L13.5674 12.5146L16.6725 12.5771L16.7347 9.48065L13.6297 9.41823Z" fill="#F6E1FF"/>
<path d="M13.6924 6.3235L13.6302 9.41992L16.7352 9.48235L16.7975 6.38593L13.6924 6.3235Z" fill="#9C73AC"/>
<path d="M13.7519 3.23054L13.6898 6.31836L16.7948 6.38078L16.8569 3.29297L13.7519 3.23054Z" fill="#9C73AC"/>
<path d="M9.90301 40.3079L9.84076 43.4043L12.9458 43.4667L13.008 40.3703L9.90301 40.3079Z" fill="#825F8F"/>
<path d="M9.96575 37.2132L9.9035 40.3096L13.0085 40.372L13.0708 37.2756L9.96575 37.2132Z" fill="#825F8F"/>
<path d="M10.0252 34.1212L9.96313 37.209L13.0682 37.2714L13.1302 34.1836L10.0252 34.1212Z" fill="#825F8F"/>
<path d="M10.0936 31.0198L10.0313 34.1162L13.1363 34.1786L13.1986 31.0822L10.0936 31.0198Z" fill="#9C73AC"/>
<path d="M10.1562 27.9251L10.0939 31.0215L13.199 31.0839L13.2612 27.9875L10.1562 27.9251Z" fill="#F6E1FF"/>
<path d="M10.2158 24.8331L10.1537 27.9209L13.2587 27.9833L13.3208 24.8955L10.2158 24.8331Z" fill="#F6E1FF"/>
<path d="M10.2752 21.7405L10.213 24.8369L13.318 24.8993L13.3802 21.8029L10.2752 21.7405Z" fill="#F6E1FF"/>
<path d="M10.3381 18.637L10.2759 21.7334L13.3809 21.7958L13.4431 18.6994L10.3381 18.637Z" fill="#F6E1FF"/>
<path d="M10.406 15.5538L10.3439 18.6416L13.449 18.704L13.511 15.6162L10.406 15.5538Z" fill="#F6E1FF"/>
<path d="M10.4658 12.4534L10.4035 15.5498L13.5085 15.6122L13.5708 12.5158L10.4658 12.4534Z" fill="#F6E1FF"/>
<path d="M10.5285 9.35768L10.4662 12.4541L13.5713 12.5165L13.6335 9.42011L10.5285 9.35768Z" fill="#9C73AC"/>
<path d="M10.5913 6.25417L10.5291 9.35059L13.6341 9.41301L13.6963 6.31659L10.5913 6.25417Z" fill="#9C73AC"/>
<path d="M6.80169 40.2473L6.73944 43.3438L9.84446 43.4062L9.90671 40.3098L6.80169 40.2473Z" fill="#825F8F"/>
<path d="M6.86444 37.1526L6.80219 40.249L9.90721 40.3114L9.96946 37.215L6.86444 37.1526Z" fill="#825F8F"/>
<path d="M6.92402 34.0606L6.86194 37.1484L9.96696 37.2109L10.029 34.123L6.92402 34.0606Z" fill="#825F8F"/>
<path d="M6.98364 30.9592L6.92139 34.0557L10.0264 34.1181L10.0887 31.0217L6.98364 30.9592Z" fill="#9C73AC"/>
<path d="M7.04638 27.8645L6.98413 30.9609L10.0891 31.0234L10.1514 27.9269L7.04638 27.8645Z" fill="#9C73AC"/>
<path d="M7.11445 24.7725L7.05237 27.8604L10.1574 27.9228L10.2195 24.835L7.11445 24.7725Z" fill="#9C73AC"/>
<path d="M7.17419 21.6721L7.11194 24.7686L10.217 24.831L10.2792 21.7346L7.17419 21.6721Z" fill="#9C73AC"/>
<path d="M7.23681 18.5764L7.17456 21.6729L10.2796 21.7353L10.3418 18.6389L7.23681 18.5764Z" fill="#9C73AC"/>
<path d="M7.29639 15.4844L7.23431 18.5723L10.3393 18.6347L10.4014 15.5469L7.29639 15.4844Z" fill="#9C73AC"/>
<path d="M7.36444 12.3928L7.30219 15.4893L10.4072 15.5517L10.4695 12.4553L7.36444 12.3928Z" fill="#9C73AC"/>
<path d="M7.42736 9.28835L7.36511 12.3848L10.4701 12.4472L10.5324 9.35077L7.42736 9.28835Z" fill="#9C73AC"/>
<path d="M3.70367 40.1819L3.64142 43.2783L6.73784 43.3406L6.80009 40.2442L3.70367 40.1819Z" fill="#825F8F"/>
<path d="M3.76635 37.0862L3.7041 40.1826L6.80052 40.2449L6.86277 37.1484L3.76635 37.0862Z" fill="#825F8F"/>
<path d="M3.82587 33.9942L3.76379 37.082L6.86022 37.1443L6.92229 34.0565L3.82587 33.9942Z" fill="#825F8F"/>
<path d="M0.596796 40.1243L0.534546 43.2207L3.63956 43.2831L3.70181 40.1867L0.596796 40.1243Z" fill="#825F8F"/>
<path d="M0.659602 37.0208L0.597351 40.1172L3.70237 40.1796L3.76462 37.0832L0.659602 37.0208Z" fill="#825F8F"/>
</svg>
