<svg width="56" height="61" viewBox="0 0 56 61" fill="none" xmlns="http://www.w3.org/2000/svg">
<path d="M17.4683 55.8975H13.1841V60.1817H17.4683V55.8975Z" fill="#3B5773"/>
<path d="M21.7526 55.8975H17.4683V60.1817H21.7526V55.8975Z" fill="#3B5773"/>
<path d="M26.0282 55.8975H21.7526V60.1817H26.0282V55.8975Z" fill="#3B5773"/>
<path d="M30.3124 55.8975H26.0282V60.1817H30.3124V55.8975Z" fill="#3B5773"/>
<path d="M34.5967 55.8975H30.3124V60.1817H34.5967V55.8975Z" fill="#3B5773"/>
<path d="M38.8723 55.8975H34.5967V60.1817H38.8723V55.8975Z" fill="#3B5773"/>
<path d="M43.1566 55.8975H38.8723V60.1817H43.1566V55.8975Z" fill="#3B5773"/>
<path d="M13.1841 51.6045H8.90845V55.8973H13.1841V51.6045Z" fill="#44847A"/>
<path d="M17.4683 51.6045H13.1841V55.8973H17.4683V51.6045Z" fill="#44847A"/>
<path d="M21.7526 51.6045H17.4683V55.8973H21.7526V51.6045Z" fill="#44847A"/>
<path d="M26.0282 51.6045H21.7526V55.8973H26.0282V51.6045Z" fill="#44847A"/>
<path d="M30.3124 51.6045H26.0282V55.8973H30.3124V51.6045Z" fill="white"/>
<path d="M34.5967 51.6045H30.3124V55.8973H34.5967V51.6045Z" fill="#44847A"/>
<path d="M38.8723 51.6045H34.5967V55.8973H38.8723V51.6045Z" fill="#44847A"/>
<path d="M43.1566 51.6045H38.8723V55.8973H43.1566V51.6045Z" fill="#44847A"/>
<path d="M47.4407 51.6045H43.1565V55.8973H47.4407V51.6045Z" fill="#44847A"/>
<path d="M8.90844 47.3115H4.62421V51.6044H8.90844V47.3115Z" fill="#44847A"/>
<path d="M13.1841 47.3115H8.90845V51.6044H13.1841V47.3115Z" fill="#44847A"/>
<path d="M17.4683 47.3115H13.1841V51.6044H17.4683V47.3115Z" fill="#44847A"/>
<path d="M21.7526 47.3115H17.4683V51.6044H21.7526V47.3115Z" fill="#31B7B5"/>
<path d="M26.0282 47.3115H21.7526V51.6044H26.0282V47.3115Z" fill="white"/>
<path d="M30.3124 47.3115H26.0282V51.6044H30.3124V47.3115Z" fill="#44847A"/>
<path d="M34.5967 47.3115H30.3124V51.6044H34.5967V47.3115Z" fill="white"/>
<path d="M38.8723 47.3115H34.5967V51.6044H38.8723V47.3115Z" fill="#31B7B5"/>
<path d="M43.1566 47.3115H38.8723V51.6044H43.1566V47.3115Z" fill="#44847A"/>
<path d="M47.4407 47.3115H43.1565V51.6044H47.4407V47.3115Z" fill="#44847A"/>
<path d="M51.725 47.3115H47.4407V51.6044H51.725V47.3115Z" fill="#44847A"/>
<path d="M4.6242 43.0273H0.339966V47.3116H4.6242V43.0273Z" fill="#44847A"/>
<path d="M8.90844 43.0273H4.62421V47.3116H8.90844V43.0273Z" fill="#44847A"/>
<path d="M13.1841 43.0273H8.90845V47.3116H13.1841V43.0273Z" fill="#44847A"/>
<path d="M17.4683 43.0273H13.1841V47.3116H17.4683V43.0273Z" fill="#31B7B5"/>
<path d="M21.7526 43.0273H17.4683V47.3116H21.7526V43.0273Z" fill="#44847A"/>
<path d="M26.0282 43.0273H21.7526V47.3116H26.0282V43.0273Z" fill="#44847A"/>
<path d="M30.3124 43.0273H26.0282V47.3116H30.3124V43.0273Z" fill="#44847A"/>
<path d="M34.5967 43.0273H30.3124V47.3116H34.5967V43.0273Z" fill="#44847A"/>
<path d="M38.8723 43.0273H34.5967V47.3116H38.8723V43.0273Z" fill="#44847A"/>
<path d="M43.1566 43.0273H38.8723V47.3116H43.1566V43.0273Z" fill="#31B7B5"/>
<path d="M47.4407 43.0273H43.1565V47.3116H47.4407V43.0273Z" fill="#44847A"/>
<path d="M51.725 43.0273H47.4407V47.3116H51.725V43.0273Z" fill="#44847A"/>
<path d="M56.0006 43.0273H51.725V47.3116H56.0006V43.0273Z" fill="#44847A"/>
<path d="M4.6242 38.7344H0.339966V43.0272H4.6242V38.7344Z" fill="#44847A"/>
<path d="M8.90844 38.7344H4.62421V43.0272H8.90844V38.7344Z" fill="#44847A"/>
<path d="M13.1841 38.7344H8.90845V43.0272H13.1841V38.7344Z" fill="#31B7B5"/>
<path d="M17.4683 38.7344H13.1841V43.0272H17.4683V38.7344Z" fill="#44847A"/>
<path d="M21.7526 38.7344H17.4683V43.0272H21.7526V38.7344Z" fill="#44847A"/>
<path d="M26.0282 38.7344H21.7526V43.0272H26.0282V38.7344Z" fill="#44847A"/>
<path d="M30.3124 38.7344H26.0282V43.0272H30.3124V38.7344Z" fill="#31B7B5"/>
<path d="M34.5967 38.7344H30.3124V43.0272H34.5967V38.7344Z" fill="#44847A"/>
<path d="M38.8723 38.7344H34.5967V43.0272H38.8723V38.7344Z" fill="#44847A"/>
<path d="M43.1566 38.7344H38.8723V43.0272H43.1566V38.7344Z" fill="#44847A"/>
<path d="M47.4407 38.7344H43.1565V43.0272H47.4407V38.7344Z" fill="#31B7B5"/>
<path d="M51.725 38.7344H47.4407V43.0272H51.725V38.7344Z" fill="#44847A"/>
<path d="M56.0006 38.7344H51.725V43.0272H56.0006V38.7344Z" fill="#44847A"/>
<path d="M4.6242 34.4424H0.339966V38.7352H4.6242V34.4424Z" fill="#44847A"/>
<path d="M8.90844 34.4424H4.62421V38.7352H8.90844V34.4424Z" fill="#44847A"/>
<path d="M13.1841 34.4424H8.90845V38.7352H13.1841V34.4424Z" fill="#31B7B5"/>
<path d="M17.4683 34.4424H13.1841V38.7352H17.4683V34.4424Z" fill="#44847A"/>
<path d="M21.7526 34.4424H17.4683V38.7352H21.7526V34.4424Z" fill="#44847A"/>
<path d="M26.0282 34.4424H21.7526V38.7352H26.0282V34.4424Z" fill="#31B7B5"/>
<path d="M30.3124 34.4424H26.0282V38.7352H30.3124V34.4424Z" fill="#31B7B5"/>
<path d="M34.5967 34.4424H30.3124V38.7352H34.5967V34.4424Z" fill="#31B7B5"/>
<path d="M38.8723 34.4424H34.5967V38.7352H38.8723V34.4424Z" fill="#44847A"/>
<path d="M43.1566 34.4424H38.8723V38.7352H43.1566V34.4424Z" fill="#44847A"/>
<path d="M47.4407 34.4424H43.1565V38.7352H47.4407V34.4424Z" fill="#31B7B5"/>
<path d="M51.725 34.4424H47.4407V38.7352H51.725V34.4424Z" fill="#44847A"/>
<path d="M56.0006 34.4424H51.725V38.7352H56.0006V34.4424Z" fill="#44847A"/>
<path d="M4.6242 30.1572H0.339966V34.4415H4.6242V30.1572Z" fill="#44847A"/>
<path d="M8.90844 30.1572H4.62421V34.4415H8.90844V30.1572Z" fill="white"/>
<path d="M13.1841 30.1572H8.90845V34.4415H13.1841V30.1572Z" fill="#44847A"/>
<path d="M17.4683 30.1572H13.1841V34.4415H17.4683V30.1572Z" fill="#44847A"/>
<path d="M21.7526 30.1572H17.4683V34.4415H21.7526V30.1572Z" fill="#44847A"/>
<path d="M26.0282 30.1572H21.7526V34.4415H26.0282V30.1572Z" fill="#31B7B5"/>
<path d="M30.3124 30.1572H26.0282V34.4415H30.3124V30.1572Z" fill="#31B7B5"/>
<path d="M34.5967 30.1572H30.3124V34.4415H34.5967V30.1572Z" fill="#31B7B5"/>
<path d="M38.8723 30.1572H34.5967V34.4415H38.8723V30.1572Z" fill="#44847A"/>
<path d="M43.1566 30.1572H38.8723V34.4415H43.1566V30.1572Z" fill="#44847A"/>
<path d="M47.4407 30.1572H43.1565V34.4415H47.4407V30.1572Z" fill="#44847A"/>
<path d="M51.725 30.1572H47.4407V34.4415H51.725V30.1572Z" fill="white"/>
<path d="M56.0006 30.1572H51.725V34.4415H56.0006V30.1572Z" fill="#44847A"/>
<path d="M4.6242 25.8652H0.339966V30.1581H4.6242V25.8652Z" fill="white"/>
<path d="M8.90844 25.8652H4.62421V30.1581H8.90844V25.8652Z" fill="#44847A"/>
<path d="M13.1841 25.8652H8.90845V30.1581H13.1841V25.8652Z" fill="#44847A"/>
<path d="M17.4683 25.8652H13.1841V30.1581H17.4683V25.8652Z" fill="#44847A"/>
<path d="M21.7526 25.8652H17.4683V30.1581H21.7526V25.8652Z" fill="#31B7B5"/>
<path d="M26.0282 25.8652H21.7526V30.1581H26.0282V25.8652Z" fill="#31B7B5"/>
<path d="M30.3124 25.8652H26.0282V30.1581H30.3124V25.8652Z" fill="white"/>
<path d="M34.5967 25.8652H30.3124V30.1581H34.5967V25.8652Z" fill="#31B7B5"/>
<path d="M38.8723 25.8652H34.5967V30.1581H38.8723V25.8652Z" fill="#31B7B5"/>
<path d="M43.1566 25.8652H38.8723V30.1581H43.1566V25.8652Z" fill="#44847A"/>
<path d="M47.4407 25.8652H43.1565V30.1581H47.4407V25.8652Z" fill="#44847A"/>
<path d="M51.725 25.8652H47.4407V30.1581H51.725V25.8652Z" fill="#44847A"/>
<path d="M56.0006 25.8652H51.725V30.1581H56.0006V25.8652Z" fill="white"/>
<path d="M4.6242 21.5723H0.339966V25.8651H4.6242V21.5723Z" fill="#44847A"/>
<path d="M8.90844 21.5723H4.62421V25.8651H8.90844V21.5723Z" fill="white"/>
<path d="M13.1841 21.5723H8.90845V25.8651H13.1841V21.5723Z" fill="#44847A"/>
<path d="M17.4683 21.5723H13.1841V25.8651H17.4683V21.5723Z" fill="#44847A"/>
<path d="M21.7526 21.5723H17.4683V25.8651H21.7526V21.5723Z" fill="#44847A"/>
<path d="M26.0282 21.5723H21.7526V25.8651H26.0282V21.5723Z" fill="#31B7B5"/>
<path d="M30.3124 21.5723H26.0282V25.8651H30.3124V21.5723Z" fill="#31B7B5"/>
<path d="M34.5967 21.5723H30.3124V25.8651H34.5967V21.5723Z" fill="#31B7B5"/>
<path d="M38.8723 21.5723H34.5967V25.8651H38.8723V21.5723Z" fill="#44847A"/>
<path d="M43.1566 21.5723H38.8723V25.8651H43.1566V21.5723Z" fill="#44847A"/>
<path d="M47.4407 21.5723H43.1565V25.8651H47.4407V21.5723Z" fill="#44847A"/>
<path d="M51.725 21.5723H47.4407V25.8651H51.725V21.5723Z" fill="white"/>
<path d="M56.0006 21.5723H51.725V25.8651H56.0006V21.5723Z" fill="#44847A"/>
<path d="M4.6242 17.2793H0.339966V21.5721H4.6242V17.2793Z" fill="#44847A"/>
<path d="M8.90844 17.2793H4.62421V21.5721H8.90844V17.2793Z" fill="#44847A"/>
<path d="M13.1841 17.2793H8.90845V21.5721H13.1841V17.2793Z" fill="#31B7B5"/>
<path d="M17.4683 17.2793H13.1841V21.5721H17.4683V17.2793Z" fill="#44847A"/>
<path d="M21.7526 17.2793H17.4683V21.5721H21.7526V17.2793Z" fill="#44847A"/>
<path d="M26.0282 17.2793H21.7526V21.5721H26.0282V17.2793Z" fill="#44847A"/>
<path d="M30.3124 17.2793H26.0282V21.5721H30.3124V17.2793Z" fill="#31B7B5"/>
<path d="M34.5967 17.2793H30.3124V21.5721H34.5967V17.2793Z" fill="#44847A"/>
<path d="M38.8723 17.2793H34.5967V21.5721H38.8723V17.2793Z" fill="#44847A"/>
<path d="M43.1566 17.2793H38.8723V21.5721H43.1566V17.2793Z" fill="#44847A"/>
<path d="M47.4407 17.2793H43.1565V21.5721H47.4407V17.2793Z" fill="#31B7B5"/>
<path d="M51.725 17.2793H47.4407V21.5721H51.725V17.2793Z" fill="#44847A"/>
<path d="M56.0006 17.2793H51.725V21.5721H56.0006V17.2793Z" fill="#44847A"/>
<path d="M4.6242 12.9951H0.339966V17.2794H4.6242V12.9951Z" fill="#44847A"/>
<path d="M8.90844 12.9951H4.62421V17.2794H8.90844V12.9951Z" fill="#44847A"/>
<path d="M13.1841 12.9951H8.90845V17.2794H13.1841V12.9951Z" fill="#44847A"/>
<path d="M17.4683 12.9951H13.1841V17.2794H17.4683V12.9951Z" fill="#31B7B5"/>
<path d="M21.7526 12.9951H17.4683V17.2794H21.7526V12.9951Z" fill="#44847A"/>
<path d="M26.0282 12.9951H21.7526V17.2794H26.0282V12.9951Z" fill="#44847A"/>
<path d="M30.3124 12.9951H26.0282V17.2794H30.3124V12.9951Z" fill="#44847A"/>
<path d="M34.5967 12.9951H30.3124V17.2794H34.5967V12.9951Z" fill="#44847A"/>
<path d="M38.8723 12.9951H34.5967V17.2794H38.8723V12.9951Z" fill="#44847A"/>
<path d="M43.1566 12.9951H38.8723V17.2794H43.1566V12.9951Z" fill="#31B7B5"/>
<path d="M47.4407 12.9951H43.1565V17.2794H47.4407V12.9951Z" fill="#44847A"/>
<path d="M51.725 12.9951H47.4407V17.2794H51.725V12.9951Z" fill="#44847A"/>
<path d="M56.0006 12.9951H51.725V17.2794H56.0006V12.9951Z" fill="#44847A"/>
<path d="M4.6242 8.70215H0.339966V12.995H4.6242V8.70215Z" fill="#44847A"/>
<path d="M8.90844 8.70215H4.62421V12.995H8.90844V8.70215Z" fill="#44847A"/>
<path d="M13.1841 8.70215H8.90845V12.995H13.1841V8.70215Z" fill="#44847A"/>
<path d="M17.4683 8.70215H13.1841V12.995H17.4683V8.70215Z" fill="#44847A"/>
<path d="M21.7526 8.70215H17.4683V12.995H21.7526V8.70215Z" fill="#31B7B5"/>
<path d="M26.0282 8.70215H21.7526V12.995H26.0282V8.70215Z" fill="white"/>
<path d="M30.3124 8.70215H26.0282V12.995H30.3124V8.70215Z" fill="#44847A"/>
<path d="M34.5967 8.70215H30.3124V12.995H34.5967V8.70215Z" fill="white"/>
<path d="M38.8723 8.70215H34.5967V12.995H38.8723V8.70215Z" fill="#31B7B5"/>
<path d="M43.1566 8.70215H38.8723V12.995H43.1566V8.70215Z" fill="#44847A"/>
<path d="M47.4407 8.70215H43.1565V12.995H47.4407V8.70215Z" fill="#44847A"/>
<path d="M51.725 8.70215H47.4407V12.995H51.725V8.70215Z" fill="#44847A"/>
<path d="M56.0006 8.70215H51.725V12.995H56.0006V8.70215Z" fill="#44847A"/>
<path d="M8.90844 4.40918H4.62421V8.70202H8.90844V4.40918Z" fill="#44847A"/>
<path d="M13.1841 4.40918H8.90845V8.70202H13.1841V4.40918Z" fill="#44847A"/>
<path d="M17.4683 4.40918H13.1841V8.70202H17.4683V4.40918Z" fill="#44847A"/>
<path d="M21.7526 4.40918H17.4683V8.70202H21.7526V4.40918Z" fill="#44847A"/>
<path d="M26.0282 4.40918H21.7526V8.70202H26.0282V4.40918Z" fill="#44847A"/>
<path d="M30.3124 4.40918H26.0282V8.70202H30.3124V4.40918Z" fill="white"/>
<path d="M34.5967 4.40918H30.3124V8.70202H34.5967V4.40918Z" fill="#44847A"/>
<path d="M38.8723 4.40918H34.5967V8.70202H38.8723V4.40918Z" fill="#44847A"/>
<path d="M43.1566 4.40918H38.8723V8.70202H43.1566V4.40918Z" fill="#44847A"/>
<path d="M47.4407 4.40918H43.1565V8.70202H47.4407V4.40918Z" fill="#44847A"/>
<path d="M51.725 4.40918H47.4407V8.70202H51.725V4.40918Z" fill="#44847A"/>
<path d="M13.1841 0.125H8.90845V4.40924H13.1841V0.125Z" fill="#44847A"/>
<path d="M17.4683 0.125H13.1841V4.40924H17.4683V0.125Z" fill="#44847A"/>
<path d="M21.7526 0.125H17.4683V4.40924H21.7526V0.125Z" fill="#44847A"/>
<path d="M26.0282 0.125H21.7526V4.40924H26.0282V0.125Z" fill="#44847A"/>
<path d="M30.3124 0.125H26.0282V4.40924H30.3124V0.125Z" fill="#44847A"/>
<path d="M34.5967 0.125H30.3124V4.40924H34.5967V0.125Z" fill="#44847A"/>
<path d="M38.8723 0.125H34.5967V4.40924H38.8723V0.125Z" fill="#44847A"/>
<path d="M43.1566 0.125H38.8723V4.40924H43.1566V0.125Z" fill="#44847A"/>
<path d="M47.4407 0.125H43.1565V4.40924H47.4407V0.125Z" fill="#44847A"/>
</svg>
