<svg viewBox="-3 -3 24 24" fill="none" xmlns="http://www.w3.org/2000/svg"><path fill-rule="evenodd" clip-rule="evenodd" d="M2.75 17.333a2.073 2.073 0 01-1.676-.846 2.072 2.072 0 01-.407-1.237v-2.53H2.75v2.53h2.53v2.083H2.75zm8.78 0V15.25H6.47v2.083h5.06zM17.333 6.47H15.25v5.06h2.083V6.47zM6.47.667V2.75h5.06V.667H6.47zM.667 5.28H2.75V2.75h2.53V.667H2.75a2.072 2.072 0 00-1.676.846A2.072 2.072 0 00.667 2.75v2.53zm0 1.19H2.75v5.06H.667V6.47zM12.72.667h2.53a2.072 2.072 0 011.676.846 2.074 2.074 0 01.407 1.237v2.53H15.25V2.75h-2.53V.667zm4.613 12.053v2.53a2.073 2.073 0 01-.846 1.676 2.072 2.072 0 01-1.237.407h-2.53V15.25h2.53v-2.53h2.083z" fill="#fff"></path></svg>
