<svg width="26" height="30" viewBox="0 0 26 30" fill="none" xmlns="http://www.w3.org/2000/svg">
<path d="M16.2492 29.1396L19.2949 29.1396L19.2949 26.4891L16.2492 26.4891L16.2492 29.1396Z" fill="#E1CDA8"/>
<path d="M19.2958 29.1396L22.3477 29.1396L22.3477 26.4891L19.2958 26.4891L19.2958 29.1396Z" fill="#E1CDA8"/>
<path d="M13.1982 26.4893L16.25 26.4893L16.25 23.844L13.1982 23.844L13.1982 26.4893Z" fill="#E1CDA8"/>
<path d="M16.2492 26.4893L19.2949 26.4893L19.2949 23.844L16.2492 23.844L16.2492 26.4893Z" fill="#E1CDA8"/>
<path d="M19.2958 26.4893L22.3477 26.4893L22.3477 23.844L19.2958 23.844L19.2958 26.4893Z" fill="#E1CDA8"/>
<path d="M22.3466 26.4893L25.3984 26.4893L25.3984 23.844L22.3466 23.844L22.3466 26.4893Z" fill="#E1CDA8"/>
<path d="M10.1454 23.8437L13.1973 23.8438L13.1973 21.1932L10.1454 21.1932L10.1454 23.8437Z" fill="#E1CDA8"/>
<path d="M13.1982 23.8437L16.25 23.8438L16.25 21.1932L13.1982 21.1932L13.1982 23.8437Z" fill="#E1CDA8"/>
<path d="M16.2492 23.8437L19.2949 23.8438L19.2949 21.1932L16.2492 21.1932L16.2492 23.8437Z" fill="#E1CDA8"/>
<path d="M19.2958 23.8437L22.3477 23.8438L22.3477 21.1932L19.2958 21.1932L19.2958 23.8437Z" fill="#E1CDA8"/>
<path d="M22.3466 23.8437L25.3984 23.8438L25.3984 21.1932L22.3466 21.1932L22.3466 23.8437Z" fill="#E1CDA8"/>
<path d="M7.10079 21.1934L10.1465 21.1934L10.1465 18.5428L7.10079 18.5428L7.10079 21.1934Z" fill="#E1CDA8"/>
<path d="M10.1454 21.1934L13.1973 21.1934L13.1973 18.5428L10.1454 18.5428L10.1454 21.1934Z" fill="#E1CDA8"/>
<path d="M13.1982 21.1934L16.25 21.1934L16.25 18.5428L13.1982 18.5428L13.1982 21.1934Z" fill="#E1CDA8"/>
<path d="M16.2492 21.1934L19.2949 21.1934L19.2949 18.5428L16.2492 18.5428L16.2492 21.1934Z" fill="#E1CDA8"/>
<path d="M19.2958 21.1934L22.3477 21.1934L22.3477 18.5428L19.2958 18.5428L19.2958 21.1934Z" fill="#E1CDA8"/>
<path d="M22.3466 21.1934L25.3984 21.1934L25.3984 18.5428L22.3466 18.5428L22.3466 21.1934Z" fill="#E1CDA8"/>
<path d="M4.04778 18.543L7.09961 18.543L7.09961 15.8977L4.04778 15.8977L4.04778 18.543Z" fill="#E1CDA8"/>
<path d="M7.10079 18.543L10.1465 18.543L10.1465 15.8977L7.10079 15.8977L7.10079 18.543Z" fill="#E1CDA8"/>
<path d="M10.1454 18.543L13.1973 18.543L13.1973 15.8977L10.1454 15.8977L10.1454 18.543Z" fill="#E1CDA8"/>
<path d="M13.1982 18.543L16.25 18.543L16.25 15.8977L13.1982 15.8977L13.1982 18.543Z" fill="#E1CDA8"/>
<path d="M16.2492 18.543L19.2949 18.543L19.2949 15.8977L16.2492 15.8977L16.2492 18.543Z" fill="#E1CDA8"/>
<path d="M19.2958 18.543L22.3477 18.543L22.3477 15.8977L19.2958 15.8977L19.2958 18.543Z" fill="#E1CDA8"/>
<path d="M22.3466 18.543L25.3984 18.543L25.3984 15.8977L22.3466 15.8977L22.3466 18.543Z" fill="#E1CDA8"/>
<path d="M0.997 15.8975L4.04883 15.8975L4.04883 13.2469L0.997 13.2469L0.997 15.8975Z" fill="#E1CDA8"/>
<path d="M4.04778 15.8975L7.09961 15.8975L7.09961 13.2469L4.04778 13.2469L4.04778 15.8975Z" fill="#E1CDA8"/>
<path d="M7.10079 15.8975L10.1465 15.8975L10.1465 13.2469L7.10079 13.2469L7.10079 15.8975Z" fill="#E1CDA8"/>
<path d="M10.1454 15.8975L13.1973 15.8975L13.1973 13.2469L10.1454 13.2469L10.1454 15.8975Z" fill="#E1CDA8"/>
<path d="M13.1982 15.8975L16.25 15.8975L16.25 13.2469L13.1982 13.2469L13.1982 15.8975Z" fill="#E1CDA8"/>
<path d="M16.2492 15.8975L19.2949 15.8975L19.2949 13.2469L16.2492 13.2469L16.2492 15.8975Z" fill="#E1CDA8"/>
<path d="M19.2958 15.8975L22.3477 15.8975L22.3477 13.2469L19.2958 13.2469L19.2958 15.8975Z" fill="#E1CDA8"/>
<path d="M22.3466 15.8975L25.3984 15.8975L25.3984 13.2469L22.3466 13.2469L22.3466 15.8975Z" fill="#E1CDA8"/>
<path d="M4.04778 13.2471L7.09961 13.2471L7.09961 10.5965L4.04778 10.5965L4.04778 13.2471Z" fill="#E1CDA8"/>
<path d="M7.10079 13.2471L10.1465 13.2471L10.1465 10.5965L7.10079 10.5965L7.10079 13.2471Z" fill="#E1CDA8"/>
<path d="M10.1454 13.2471L13.1973 13.2471L13.1973 10.5965L10.1454 10.5965L10.1454 13.2471Z" fill="#E1CDA8"/>
<path d="M13.1982 13.2471L16.25 13.2471L16.25 10.5965L13.1982 10.5965L13.1982 13.2471Z" fill="#E1CDA8"/>
<path d="M16.2492 13.2471L19.2949 13.2471L19.2949 10.5965L16.2492 10.5965L16.2492 13.2471Z" fill="#E1CDA8"/>
<path d="M19.2958 13.2471L22.3477 13.2471L22.3477 10.5965L19.2958 10.5965L19.2958 13.2471Z" fill="#E1CDA8"/>
<path d="M22.3466 13.2471L25.3984 13.2471L25.3984 10.5965L22.3466 10.5965L22.3466 13.2471Z" fill="#E1CDA8"/>
<path d="M7.10079 10.5967L10.1465 10.5967L10.1465 7.94614L7.10079 7.94614L7.10079 10.5967Z" fill="#E1CDA8"/>
<path d="M10.1454 10.5967L13.1973 10.5967L13.1973 7.94614L10.1454 7.94614L10.1454 10.5967Z" fill="#E1CDA8"/>
<path d="M13.1982 10.5967L16.25 10.5967L16.25 7.94614L13.1982 7.94614L13.1982 10.5967Z" fill="#E1CDA8"/>
<path d="M16.2492 10.5967L19.2949 10.5967L19.2949 7.94614L16.2492 7.94614L16.2492 10.5967Z" fill="#E1CDA8"/>
<path d="M19.2958 10.5967L22.3477 10.5967L22.3477 7.94614L19.2958 7.94614L19.2958 10.5967Z" fill="#E1CDA8"/>
<path d="M22.3466 10.5967L25.3984 10.5967L25.3984 7.94614L22.3466 7.94614L22.3466 10.5967Z" fill="#E1CDA8"/>
<path d="M10.1454 7.94531L13.1973 7.94531L13.1973 5.30008L10.1454 5.30008L10.1454 7.94531Z" fill="#E1CDA8"/>
<path d="M13.1982 7.94531L16.25 7.94531L16.25 5.30008L13.1982 5.30008L13.1982 7.94531Z" fill="#E1CDA8"/>
<path d="M16.2492 7.94531L19.2949 7.94531L19.2949 5.30008L16.2492 5.30008L16.2492 7.94531Z" fill="#E1CDA8"/>
<path d="M19.2958 7.94531L22.3477 7.94531L22.3477 5.30008L19.2958 5.30008L19.2958 7.94531Z" fill="#E1CDA8"/>
<path d="M22.3466 7.94531L25.3984 7.94531L25.3984 5.30008L22.3466 5.30008L22.3466 7.94531Z" fill="#E1CDA8"/>
<path d="M13.1982 5.30078L16.25 5.30078L16.25 2.65024L13.1982 2.65024L13.1982 5.30078Z" fill="#E1CDA8"/>
<path d="M16.2492 5.30078L19.2949 5.30078L19.2949 2.65024L16.2492 2.65024L16.2492 5.30078Z" fill="#E1CDA8"/>
<path d="M19.2958 5.30078L22.3477 5.30078L22.3477 2.65024L19.2958 2.65024L19.2958 5.30078Z" fill="#E1CDA8"/>
<path d="M22.3466 5.30078L25.3984 5.30078L25.3984 2.65024L22.3466 2.65024L22.3466 5.30078Z" fill="#E1CDA8"/>
<path d="M16.2492 2.65039L19.2949 2.65039L19.2949 -0.000150204L16.2492 -0.000150434L16.2492 2.65039Z" fill="#E1CDA8"/>
<path d="M19.2958 2.65039L22.3477 2.65039L22.3477 -0.000150204L19.2958 -0.000150435L19.2958 2.65039Z" fill="#E1CDA8"/>
</svg>
