<svg width="62" height="55" viewBox="0 0 62 55" fill="none" xmlns="http://www.w3.org/2000/svg">
<g clip-path="url(#clip0_340_101633)">
<path d="M28.0501 49.8701H23.0801V54.8601H28.0501V49.8701Z" fill="#54A88A"/>
<path d="M33.0308 49.8701H28.0508V54.8601H33.0308V49.8701Z" fill="#54A88A"/>
<path d="M38.0112 49.8701H33.0312V54.8601H38.0112V49.8701Z" fill="#54A88A"/>
<path d="M42.9798 49.8701H38.0098V54.8601H42.9798V49.8701Z" fill="#54A88A"/>
<path d="M23.0796 44.8799H18.0996V49.8699H23.0796V44.8799Z" fill="#54A88A"/>
<path d="M47.9605 44.8799H42.9805V49.8699H47.9605V44.8799Z" fill="#54A88A"/>
<path d="M18.1011 39.9004H13.1211V44.8804H18.1011V39.9004Z" fill="#54A88A"/>
<path d="M52.9409 39.9004H47.9609V44.8804H52.9409V39.9004Z" fill="#54A88A"/>
<path d="M18.1011 34.9102H13.1211V39.9002H18.1011V34.9102Z" fill="#54A88A"/>
<path d="M52.9409 34.9102H47.9609V39.9002H52.9409V34.9102Z" fill="#54A88A"/>
<path d="M52.9409 29.9199H47.9609V34.9099H52.9409V29.9199Z" fill="#54A88A"/>
<path d="M52.9409 24.9404H47.9609V29.9204H52.9409V24.9404Z" fill="#54A88A"/>
<path d="M23.0796 19.9502H18.0996V24.9402H23.0796V19.9502Z" fill="#54A88A"/>
<path d="M52.9409 19.9502H47.9609V24.9402H52.9409V19.9502Z" fill="#54A88A"/>
<path d="M18.1011 14.96H13.1211V19.95H18.1011V14.96Z" fill="#54A88A"/>
<path d="M47.9605 14.96H42.9805V19.95H47.9605V14.96Z" fill="#54A88A"/>
<path d="M13.1204 9.96973H8.15039V14.9597H13.1204V9.96973Z" fill="#54A88A"/>
<path d="M18.1011 9.96973H13.1211V14.9597H18.1011V9.96973Z" fill="#54A88A"/>
<path d="M23.0796 9.96973H18.0996V14.9597H23.0796V9.96973Z" fill="#54A88A"/>
<path d="M28.0501 9.96973H23.0801V14.9597H28.0501V9.96973Z" fill="#54A88A"/>
<path d="M33.0308 9.96973H28.0508V14.9597H33.0308V9.96973Z" fill="#54A88A"/>
<path d="M38.0112 9.96973H33.0312V14.9597H38.0112V9.96973Z" fill="#54A88A"/>
<path d="M42.9798 9.96973H38.0098V14.9597H42.9798V9.96973Z" fill="#54A88A"/>
<path d="M18.1011 4.99023H13.1211V9.97023H18.1011V4.99023Z" fill="#54A88A"/>
<path d="M23.0796 0H18.0996V4.99H23.0796V0Z" fill="#54A88A"/>
</g>
<defs>
<clipPath id="clip0_340_101633">
<rect width="61.11" height="54.86" fill="white"/>
</clipPath>
</defs>
</svg>
