<svg width="69" height="56" viewBox="0 0 69 56" fill="none" xmlns="http://www.w3.org/2000/svg">
<path d="M25.6975 51.4795H21.4219V55.7723H25.6975V51.4795Z" fill="black"/>
<path d="M29.9815 51.4795H25.6973V55.7723H29.9815V51.4795Z" fill="black"/>
<path d="M34.2667 51.4795H29.9824V55.7723H34.2667V51.4795Z" fill="black"/>
<path d="M38.5413 51.4795H34.2656V55.7723H38.5413V51.4795Z" fill="#969390"/>
<path d="M42.8253 51.4795H38.541V55.7723H42.8253V51.4795Z" fill="#969390"/>
<path d="M47.1104 51.4795H42.8262V55.7723H47.1104V51.4795Z" fill="#969390"/>
<path d="M51.385 51.4795H47.1094V55.7723H51.385V51.4795Z" fill="#969390"/>
<path d="M59.9542 51.4795H55.6699V55.7723H59.9542V51.4795Z" fill="#969390"/>
<path d="M64.2393 51.4795H59.9551V55.7723H64.2393V51.4795Z" fill="#969390"/>
<path d="M21.4229 47.1865H17.1387V51.4794H21.4229V47.1865Z" fill="black"/>
<path d="M29.9815 47.1865H25.6973V51.4794H29.9815V47.1865Z" fill="black"/>
<path d="M17.1378 42.9023H12.8535V47.1866H17.1378V42.9023Z" fill="black"/>
<path d="M34.2667 42.9023H29.9824V47.1866H34.2667V42.9023Z" fill="black"/>
<path d="M21.4229 38.6094H17.1387V42.9022H21.4229V38.6094Z" fill="black"/>
<path d="M38.5413 38.6094H34.2656V42.9022H38.5413V38.6094Z" fill="#969390"/>
<path d="M25.6975 34.3174H21.4219V38.6102H25.6975V34.3174Z" fill="black"/>
<path d="M34.2667 34.3174H29.9824V38.6102H34.2667V34.3174Z" fill="black"/>
<path d="M38.5413 34.3174H34.2656V38.6102H38.5413V34.3174Z" fill="#969390"/>
<path d="M42.8253 34.3174H38.541V38.6102H42.8253V34.3174Z" fill="#969390"/>
<path d="M29.9815 30.0322H25.6973V34.3165H29.9815V30.0322Z" fill="black"/>
<path d="M34.2667 30.0322H29.9824V34.3165H34.2667V30.0322Z" fill="black"/>
<path d="M38.5413 30.0322H34.2656V34.3165H38.5413V30.0322Z" fill="#969390"/>
<path d="M42.8253 30.0322H38.541V34.3165H42.8253V30.0322Z" fill="#969390"/>
<path d="M47.1104 30.0322H42.8262V34.3165H47.1104V30.0322Z" fill="#969390"/>
<path d="M34.2667 25.7402H29.9824V30.0331H34.2667V25.7402Z" fill="black"/>
<path d="M38.5413 25.7402H34.2656V30.0331H38.5413V25.7402Z" fill="#969390"/>
<path d="M42.8253 25.7402H38.541V30.0331H42.8253V25.7402Z" fill="#969390"/>
<path d="M47.1104 25.7402H42.8262V30.0331H47.1104V25.7402Z" fill="#969390"/>
<path d="M51.385 25.7402H47.1094V30.0331H51.385V25.7402Z" fill="#969390"/>
<path d="M38.5413 21.4473H34.2656V25.7401H38.5413V21.4473Z" fill="#969390"/>
<path d="M42.8253 21.4473H38.541V25.7401H42.8253V21.4473Z" fill="#969390"/>
<path d="M47.1104 21.4473H42.8262V25.7401H47.1104V21.4473Z" fill="#969390"/>
<path d="M51.385 21.4473H47.1094V25.7401H51.385V21.4473Z" fill="#969390"/>
<path d="M55.671 21.4473H51.3867V25.7401H55.671V21.4473Z" fill="#969390"/>
<path d="M42.8253 17.1543H38.541V21.4471H42.8253V17.1543Z" fill="#969390"/>
<path d="M47.1104 17.1543H42.8262V21.4471H47.1104V17.1543Z" fill="#969390"/>
<path d="M51.385 17.1543H47.1094V21.4471H51.385V17.1543Z" fill="#969390"/>
<path d="M55.671 17.1543H51.3867V21.4471H55.671V17.1543Z" fill="#969390"/>
<path d="M59.9542 17.1543H55.6699V21.4471H59.9542V17.1543Z" fill="#969390"/>
<path d="M34.2667 12.8701H29.9824V17.1544H34.2667V12.8701Z" fill="#BCEDCF"/>
<path d="M47.1104 12.8701H42.8262V17.1544H47.1104V12.8701Z" fill="#969390"/>
<path d="M51.385 12.8701H47.1094V17.1544H51.385V12.8701Z" fill="#969390"/>
<path d="M55.671 12.8701H51.3867V17.1544H55.671V12.8701Z" fill="#969390"/>
<path d="M59.9542 12.8701H55.6699V17.1544H59.9542V12.8701Z" fill="#969390"/>
<path d="M64.2393 12.8701H59.9551V17.1544H64.2393V12.8701Z" fill="#969390"/>
<path d="M29.9815 8.57715H25.6973V12.87H29.9815V8.57715Z" fill="#BCEDCF"/>
<path d="M34.2667 8.57715H29.9824V12.87H34.2667V8.57715Z" fill="#BCEDCF"/>
<path d="M38.5413 8.57715H34.2656V12.87H38.5413V8.57715Z" fill="#7DD6E3"/>
<path d="M51.385 8.57715H47.1094V12.87H51.385V8.57715Z" fill="#969390"/>
<path d="M55.671 8.57715H51.3867V12.87H55.671V8.57715Z" fill="#969390"/>
<path d="M59.9542 8.57715H55.6699V12.87H59.9542V8.57715Z" fill="#969390"/>
<path d="M64.2393 8.57715H59.9551V12.87H64.2393V8.57715Z" fill="#969390"/>
<path d="M68.5139 8.57715H64.2383V12.87H68.5139V8.57715Z" fill="#969390"/>
<path d="M34.2667 4.28418H29.9824V8.57702H34.2667V4.28418Z" fill="#BCEDCF"/>
<path d="M55.671 4.28418H51.3867V8.57702H55.671V4.28418Z" fill="#969390"/>
<path d="M59.9542 4.28418H55.6699V8.57702H59.9542V4.28418Z" fill="#969390"/>
<path d="M64.2393 4.28418H59.9551V8.57702H64.2393V4.28418Z" fill="#969390"/>
<path d="M59.9542 0H55.6699V4.28424H59.9542V0Z" fill="#969390"/>
<path d="M25.6885 51.4883H21.4043V55.7811H25.6885V51.4883Z" fill="#969390"/>
<path d="M29.9717 51.4883H25.6875V55.7811H29.9717V51.4883Z" fill="#969390"/>
<path d="M34.2483 51.4883H29.9727V55.7811H34.2483V51.4883Z" fill="#969390"/>
<path d="M21.4034 47.2041H17.1191V51.4883H21.4034V47.2041Z" fill="#969390"/>
<path d="M25.6885 47.2041H21.4043V51.4883H25.6885V47.2041Z" fill="#FEE874"/>
<path d="M29.9717 47.2041H25.6875V51.4883H29.9717V47.2041Z" fill="#969390"/>
<path d="M17.1194 42.9111H12.8438V47.204H17.1194V42.9111Z" fill="#969390"/>
<path d="M21.4034 42.9111H17.1191V47.204H21.4034V42.9111Z" fill="white"/>
<path d="M25.6885 42.9111H21.4043V47.204H25.6885V42.9111Z" fill="#FEE874"/>
<path d="M29.9717 42.9111H25.6875V47.204H29.9717V42.9111Z" fill="#FEE874"/>
<path d="M34.2483 42.9111H29.9727V47.204H34.2483V42.9111Z" fill="#969390"/>
<path d="M21.4034 38.6191H17.1191V42.912H21.4034V38.6191Z" fill="#969390"/>
<path d="M25.6885 38.6191H21.4043V42.912H25.6885V38.6191Z" fill="white"/>
<path d="M29.9717 38.6191H25.6875V42.912H29.9717V38.6191Z" fill="#FEE874"/>
<path d="M34.2483 38.6191H29.9727V42.912H34.2483V38.6191Z" fill="#FEE874"/>
<path d="M12.8448 34.334H8.56055V38.6182H12.8448V34.334Z" fill="#7DD6E3"/>
<path d="M25.6885 34.334H21.4043V38.6182H25.6885V34.334Z" fill="#969390"/>
<path d="M29.9717 34.334H25.6875V38.6182H29.9717V34.334Z" fill="white"/>
<path d="M34.2483 34.334H29.9727V38.6182H34.2483V34.334Z" fill="#969390"/>
<path d="M8.55963 30.042H4.27539V34.3348H8.55963V30.042Z" fill="white"/>
<path d="M12.8448 30.042H8.56055V34.3348H12.8448V30.042Z" fill="#7DD6E3"/>
<path d="M17.1194 30.042H12.8438V34.3348H17.1194V30.042Z" fill="white"/>
<path d="M29.9717 30.042H25.6875V34.3348H29.9717V30.042Z" fill="#969390"/>
<path d="M34.2483 30.042H29.9727V34.3348H34.2483V30.042Z" fill="#969390"/>
<path d="M4.27563 25.749H0V30.0419H4.27563V25.749Z" fill="#7DD6E3"/>
<path d="M8.55963 25.749H4.27539V30.0419H8.55963V25.749Z" fill="#7DD6E3"/>
<path d="M12.8448 25.749H8.56055V30.0419H12.8448V25.749Z" fill="white"/>
<path d="M17.1194 25.749H12.8438V30.0419H17.1194V25.749Z" fill="#7DD6E3"/>
<path d="M21.4034 25.749H17.1191V30.0419H21.4034V25.749Z" fill="#7DD6E3"/>
<path d="M34.2483 25.749H29.9727V30.0419H34.2483V25.749Z" fill="#969390"/>
<path d="M8.55963 21.4561H4.27539V25.7489H8.55963V21.4561Z" fill="white"/>
<path d="M12.8448 21.4561H8.56055V25.7489H12.8448V21.4561Z" fill="#7DD6E3"/>
<path d="M17.1194 21.4561H12.8438V25.7489H17.1194V21.4561Z" fill="white"/>
<path d="M4.27563 17.1719H0V21.4561H4.27563V17.1719Z" fill="white"/>
<path d="M12.8448 17.1719H8.56055V21.4561H12.8448V17.1719Z" fill="#7DD6E3"/>
<path d="M21.4034 17.1719H17.1191V21.4561H21.4034V17.1719Z" fill="white"/>
<path d="M34.2483 12.8789H29.9727V17.1717H34.2483V12.8789Z" fill="#7DD6E3"/>
<path d="M29.9717 8.58594H25.6875V12.8788H29.9717V8.58594Z" fill="#7DD6E3"/>
<path d="M34.2483 8.58594H29.9727V12.8788H34.2483V8.58594Z" fill="#7DD6E3"/>
<path d="M34.2483 4.30176H29.9727V8.586H34.2483V4.30176Z" fill="#7DD6E3"/>
</svg>
